<?xml version="1.0" encoding="UTF-8"?>
<svg version="1.1" xmlns="http://www.w3.org/2000/svg" width="297" height="297">
<path d="M0 0 C0.77537109 0.21430664 1.55074219 0.42861328 2.34960938 0.64941406 C40.31802549 11.47277583 72.92607198 37.6050134 92.3125 71.875 C110.29706368 104.92991276 116.27514518 146.49742946 106 183 C105.67854004 184.16305664 105.67854004 184.16305664 105.35058594 185.34960938 C94.52722417 223.31802549 68.3949866 255.92607198 34.125 275.3125 C1.07008724 293.29706368 -40.49742946 299.27514518 -77 289 C-77.77537109 288.78569336 -78.55074219 288.57138672 -79.34960938 288.35058594 C-117.31802549 277.52722417 -149.92607198 251.3949866 -169.3125 217.125 C-187.29706368 184.07008724 -193.27514518 142.50257054 -183 106 C-182.78569336 105.22462891 -182.57138672 104.44925781 -182.35058594 103.65039062 C-171.52722417 65.68197451 -145.3949866 33.07392802 -111.125 13.6875 C-78.07008724 -4.29706368 -36.50257054 -10.27514518 0 0 Z " fill="#244A4C" transform="translate(187,4)"/>
<path d="M0 0 C9.24 0 18.48 0 28 0 C33.46613546 10.93227092 33.46613546 10.93227092 35.4375 16.6875 C37.19968242 21.41235162 38.98643262 24.54103328 42.453125 28.1328125 C47.55755652 34.29422227 50.33446656 42.53650636 53 50 C53.65129797 51.34090759 54.31513275 52.67592331 55 54 C56.1534925 56.768382 57.20829788 59.56240428 58.25 62.375 C59.79386061 66.49458724 61.38736539 70.59442311 63 74.6875 C63.24911133 75.32929199 63.49822266 75.97108398 63.75488281 76.63232422 C65.21962005 80.32680235 66.93201997 83.61699676 69 87 C70.15144084 89.38746619 71.27678026 91.77607159 72.375 94.1875 C74.42103494 98.66136588 76.53624117 103.04421694 78.875 107.375 C81.21418801 111.94600346 81.75282917 115.89180293 82 121 C83.485 121.495 83.485 121.495 85 122 C86.1875 124.5625 86.1875 124.5625 87 127 C88.65 127 90.3 127 92 127 C92.185625 125.8553125 92.185625 125.8553125 92.375 124.6875 C93 122 93 122 95 119 C95.66 119 96.32 119 97 119 C97.020625 117.824375 97.04125 116.64875 97.0625 115.4375 C97.58378549 110.60794329 99.26523731 106.65911969 101.3125 102.3125 C101.60842041 101.68335693 101.90434082 101.05421387 102.20922852 100.40600586 C103.67887481 97.39011544 105.18585093 94.73722176 107.1328125 91.984375 C109.25614528 88.59059625 109.88276973 85.86625545 110.5625 81.9375 C111.38882602 77.21050458 112.43020295 74.02748145 115 70 C116.01269625 67.6721489 117.0118478 65.33837543 118 63 C119.46843094 60.01081097 120.96738758 57.03995468 122.48242188 54.07421875 C124.15846431 50.76595199 125.64749541 47.45121862 127 44 C127.62947165 42.70028122 128.27468668 41.40803623 128.9375 40.125 C130.79006125 36.47538495 132.42600655 32.77758429 134 29 C134.66 29 135.32 29 136 29 C136.061875 28.21625 136.12375 27.4325 136.1875 26.625 C137.30628323 21.63350561 139.61972874 17.49849432 142 13 C142.60797842 11.79358007 143.21292772 10.58561963 143.8125 9.375 C144.4003125 8.199375 144.4003125 8.199375 145 7 C145.66 7 146.32 7 147 7 C147.1546875 6.1028125 147.1546875 6.1028125 147.3125 5.1875 C148.14189463 2.54851709 148.77871774 1.651588 151 0 C153.91088867 -0.34057617 153.91088867 -0.34057617 157.41796875 -0.29296875 C158.67158203 -0.28330078 159.92519531 -0.27363281 161.21679688 -0.26367188 C162.52712891 -0.23853516 163.83746094 -0.21339844 165.1875 -0.1875 C166.52277163 -0.17244967 167.85805937 -0.15876187 169.19335938 -0.14648438 C172.46264576 -0.11107694 175.73112093 -0.0616889 179 0 C178.2785613 5.75109156 177.27778563 10.22809156 173.5234375 14.796875 C171.11426739 18.28090562 170.25773962 22.1937027 169.0625 26.22265625 C168.00336832 28.99119531 167.11742687 30.04109707 165 32 C164.27011126 33.89107538 163.54713806 35.78548681 162.87890625 37.69921875 C161.92705077 40.19096488 160.78346858 42.50400598 159.5625 44.875 C157.04046145 49.79679645 154.96718193 54.83477371 153 60 C151.68 60 150.36 60 149 60 C148.8453125 61.60875 148.8453125 61.60875 148.6875 63.25 C148 67 148 67 146.5625 68.875 C144.12552119 72.18929118 143.72535955 76.00625566 143 80 C142.34 80 141.68 80 141 80 C140.81824219 80.54527344 140.63648438 81.09054688 140.44921875 81.65234375 C139.91926923 83.2421923 139.38509907 84.83063762 138.84765625 86.41796875 C138.30295552 88.07717236 137.78727482 89.74634089 137.30859375 91.42578125 C135.51984979 97.50751073 135.51984979 97.50751073 132.625 100.25 C129.0748858 103.96916725 127.97227535 107.99220822 126.2578125 112.78515625 C124.90496096 116.24291034 123.20391793 119.03130875 121.12890625 122.08203125 C119.43496121 124.9599794 118.57115421 128.01237481 117.67578125 131.21484375 C117 133 117 133 115 134 C114.27122432 135.64045976 113.61402304 137.31322855 113 139 C112.48759766 140.27230469 112.48759766 140.27230469 111.96484375 141.5703125 C111.45630859 142.83488281 111.45630859 142.83488281 110.9375 144.125 C110.42509766 145.39730469 110.42509766 145.39730469 109.90234375 146.6953125 C109.21748681 148.44451422 108.59403162 150.21790513 108 152 C107.34 152 106.68 152 106 152 C105.81824219 152.6290625 105.63648438 153.258125 105.44921875 153.90625 C103.84556373 159.36690093 102.19705195 164.74618011 100 170 C99.34 170.33 98.68 170.66 98 171 C96.9721429 173.13827273 96.9721429 173.13827273 96.0625 175.6875 C94.56558619 179.59517387 92.94770097 183.29936815 91 187 C87.51307598 186.04902072 86.20623099 185.298842 84.12109375 182.27734375 C83.28771484 180.62412109 83.28771484 180.62412109 82.4375 178.9375 C81.84324219 177.76832031 81.24898438 176.59914062 80.63671875 175.39453125 C78.10301329 170.13966241 75.7257412 164.88032948 73.625 159.4375 C72.23515402 156.4974412 70.94094756 154.55589479 68.9375 152.0625 C66.72738405 149.26991506 65.55635809 147.11104683 64.8125 143.625 C64.3837403 139.75706979 64.3837403 139.75706979 61 138 C60 135.4375 60 135.4375 59 132 C57.58687252 127.21156803 56.0395526 122.8789768 53.5 118.5625 C51.17072222 114.58738522 49.87963856 110.72243861 48.7734375 106.26171875 C47.90025484 103.70832097 46.65697406 102.11747306 45 100 C42.14422797 94.86469481 39.6376972 89.65749943 38 84 C37.34 84 36.68 84 36 84 C35.85304687 83.16597656 35.70609375 82.33195312 35.5546875 81.47265625 C34.21280717 74.74011871 32.65155037 69.94593528 28.55859375 64.46484375 C25.39310066 59.4587632 23.80870436 53.60626291 22 48 C21.24849977 44.72226496 21.24849977 44.72226496 18 43 C17.690625 41.88625 17.38125 40.7725 17.0625 39.625 C16.32165563 35.99270046 16.32165563 35.99270046 14 34.0625 C11.0631692 31.03389324 10.82019431 28.10097153 10 24 C9.34 24 8.68 24 8 24 C7.5875 22.88625 7.175 21.7725 6.75 20.625 C5.48579556 17.25980817 4.1934784 13.90681564 2.875 10.5625 C2.54242188 9.71816406 2.20984375 8.87382813 1.8671875 8.00390625 C1.163717 6.0410114 1.163717 6.0410114 0 5 C0 3.35 0 1.7 0 0 Z " fill="#6CFCEE" transform="translate(59,79)"/>
<path d="M0 0 C0 0.66 0 1.32 0 2 C1.1446875 2.4021875 1.1446875 2.4021875 2.3125 2.8125 C4.95845952 3.9816449 6.16374503 4.82988049 8 7 C8.50273437 7.55558594 9.00546875 8.11117187 9.5234375 8.68359375 C12.59308058 13.49919785 12.26258611 19.44905173 12 25 C10.80184579 30.09399305 8.57534577 32.90023031 4.30859375 35.87890625 C-1.66898158 39.16924465 -7.16474642 41.35338021 -14 40 C-20.8056504 37.54996586 -26.31922593 33.04506995 -29.4375 26.5 C-31.93263396 20.0961798 -31.0333332 15.35416624 -29 9 C-28.34 9 -27.68 9 -27 9 C-26.731875 8.360625 -26.46375 7.72125 -26.1875 7.0625 C-25 5 -25 5 -22 4 C-22 3.34 -22 2.68 -22 2 C-15.74593212 -2.28850369 -7.0789466 -2.35964887 0 0 Z " fill="#6EFCEE" transform="translate(157,70)"/>
<path d="M0 0 C0 0.66 0 1.32 0 2 C1.1446875 2.4021875 1.1446875 2.4021875 2.3125 2.8125 C4.95845952 3.9816449 6.16374503 4.82988049 8 7 C8.50273437 7.55558594 9.00546875 8.11117187 9.5234375 8.68359375 C12.59308058 13.49919785 12.26258611 19.44905173 12 25 C10.80184579 30.09399305 8.57534577 32.90023031 4.30859375 35.87890625 C-1.66898158 39.16924465 -7.16474642 41.35338021 -14 40 C-20.8056504 37.54996586 -26.31922593 33.04506995 -29.4375 26.5 C-31.93263396 20.0961798 -31.0333332 15.35416624 -29 9 C-28.34 9 -27.68 9 -27 9 C-26.731875 8.360625 -26.46375 7.72125 -26.1875 7.0625 C-25 5 -25 5 -22 4 C-22 3.34 -22 2.68 -22 2 C-15.74593212 -2.28850369 -7.0789466 -2.35964887 0 0 Z M-18 3 C-18 3.66 -18 4.32 -18 5 C-18.556875 5.061875 -19.11375 5.12375 -19.6875 5.1875 C-23.28399603 6.45113374 -24.72005612 7.91899476 -27 11 C-28.4666929 17.09241665 -28.70037566 23.26170173 -26 29 C-22.44114865 32.77745401 -18.14612766 36.86636814 -12.86328125 37.1953125 C-11.69152344 37.17210937 -10.51976562 37.14890625 -9.3125 37.125 C-8.13300781 37.10695312 -6.95351562 37.08890625 -5.73828125 37.0703125 C-4.83464844 37.04710937 -3.93101562 37.02390625 -3 37 C-3 36.34 -3 35.68 -3 35 C-2.278125 35.0825 -1.55625 35.165 -0.8125 35.25 C2.91755397 34.91843965 4.34685381 33.58143954 7 31 C9.51893338 27.30497925 9.36712726 23.38069546 9.375 19.0625 C9.41173828 18.00772461 9.41173828 18.00772461 9.44921875 16.93164062 C9.46967171 13.29442317 9.14243267 11.22089134 7.15625 8.140625 C1.78379472 2.80710055 -1.80134408 1.74900384 -9.3125 1.6875 C-13.82164585 1.65303857 -13.82164585 1.65303857 -18 3 Z " fill="#50BCB4" transform="translate(157,70)"/>
<path d="M0 0 C0.99134419 2.61739045 1.09832287 3.734787 0.109375 6.40234375 C-0.56351563 7.65724609 -0.56351563 7.65724609 -1.25 8.9375 C-1.68828125 9.77152344 -2.1265625 10.60554688 -2.578125 11.46484375 C-4 14 -4 14 -5.515625 16.20703125 C-8.03595972 20.94923999 -8.91642935 26.19358407 -10.10546875 31.40234375 C-10.30785156 32.23378906 -10.51023438 33.06523438 -10.71875 33.921875 C-10.89341797 34.68081055 -11.06808594 35.43974609 -11.24804688 36.22167969 C-11.49619141 36.80852539 -11.74433594 37.39537109 -12 38 C-13.485 38.495 -13.485 38.495 -15 39 C-15.103125 39.70125 -15.20625 40.4025 -15.3125 41.125 C-16.09359003 44.39137647 -17.42058743 47.0471852 -19 50 C-19.66 50 -20.32 50 -21 50 C-22.46939453 54.30322683 -23.77443263 58.62297367 -25 63 C-25.66 63 -26.32 63 -27 63 C-27 63.66 -27 64.32 -27 65 C-27.66 65 -28.32 65 -29 65 C-29 65.99 -29 66.98 -29 68 C-29.99 68.495 -29.99 68.495 -31 69 C-31.72159424 70.64363134 -32.39351421 72.31050386 -33 74 C-34 71 -34 71 -33.328125 69.203125 C-32.97234375 68.55859375 -32.6165625 67.9140625 -32.25 67.25 C-30.57996316 64.18411148 -29.16979358 61.07212889 -27.81201172 57.85546875 C-26.20579702 54.18522471 -24.33949632 50.64069132 -22.51757812 47.07421875 C-20.84153569 43.76595199 -19.35250459 40.45121862 -18 37 C-17.37052835 35.70028122 -16.72531332 34.40803623 -16.0625 33.125 C-14.20993875 29.47538495 -12.57399345 25.77758429 -11 22 C-10.34 22 -9.68 22 -9 22 C-8.938125 21.21625 -8.87625 20.4325 -8.8125 19.625 C-7.69371677 14.63350561 -5.38027126 10.49849432 -3 6 C-2.39202158 4.79358007 -1.78707228 3.58561963 -1.1875 2.375 C-0.795625 1.59125 -0.40375 0.8075 0 0 Z " fill="#5AD0C8" transform="translate(204,86)"/>
<path d="M0 0 C1.93720146 3.25802063 2 5.15044673 2 9 C2.66 9 3.32 9 4 9 C4.495 11.97 4.495 11.97 5 15 C5.66 15 6.32 15 7 15 C7.67220351 16.93558599 8.33758077 18.87354372 9 20.8125 C9.37125 21.89144531 9.7425 22.97039062 10.125 24.08203125 C11 27 11 27 11 30 C7.10117486 25.12646857 4.9719227 20.6277689 2.98046875 14.7265625 C2.06273707 12.17446403 0.99636924 9.84277398 -0.25 7.4375 C-2 4 -2 4 -2 2 C-11.24 2 -20.48 2 -30 2 C-28.44029532 6.67911404 -26.73439894 11.11137182 -24.8046875 15.6328125 C-24 18 -24 18 -24 22 C-24.66 22 -25.32 22 -26 22 C-29.25913144 14.74102544 -31.06982347 7.89018161 -32 0 C-27.79208145 -0.19770851 -23.58366185 -0.38136206 -19.375 -0.5625 C-18.18519531 -0.61857422 -16.99539062 -0.67464844 -15.76953125 -0.73242188 C-14.61582031 -0.78076172 -13.46210937 -0.82910156 -12.2734375 -0.87890625 C-11.21560059 -0.9260376 -10.15776367 -0.97316895 -9.06787109 -1.02172852 C-5.90411409 -0.99932088 -3.07629372 -0.74467831 0 0 Z " fill="#3F918D" transform="translate(89,77)"/>
<path d="M0 0 C0.66 0 1.32 0 2 0 C1.76480024 6.3503936 0.0182233 10.04115002 -3.375 15.359375 C-7.77483851 22.50911259 -10.51468566 29.76325685 -12 38 C-12.66 38 -13.32 38 -14 38 C-15.07525194 40.65228812 -16.09456151 43.28368454 -17 46 C-19.475 46.495 -19.475 46.495 -22 47 C-22.45375 46.030625 -22.9075 45.06125 -23.375 44.0625 C-24.65786221 40.92920418 -24.65786221 40.92920418 -27 40 C-27.40729228 37.67843403 -27.74438677 35.3431213 -28 33 C-27.34 33 -26.68 33 -26 33 C-25.67 34.65 -25.34 36.3 -25 38 C-24.01 38.33 -23.02 38.66 -22 39 C-20.8125 41.0625 -20.8125 41.0625 -20 43 C-17.09527336 38.22794909 -14.94349865 33.48198483 -12.93359375 28.2734375 C-11.86516487 25.67165671 -10.44586934 23.40978223 -9 21 C-8.3371652 19.36093988 -7.6932307 17.71418001 -7.0625 16.0625 C-5.48190015 11.96509885 -3.45829033 8.64505117 -1 5 C-0.21784412 2.2717496 -0.21784412 2.2717496 0 0 Z " fill="#459C97" transform="translate(168,160)"/>
<path d="M0 0 C0.99 1.485 0.99 1.485 2 3 C3.2684375 4.423125 3.2684375 4.423125 4.5625 5.875 C6.96535843 8.95558773 7.38485029 10.30910172 8 14 C8.99 14.66 9.98 15.32 11 16 C12.0625 18.609375 12.0625 18.609375 13 21.75 C14.57441824 26.74060877 16.10222045 31.40717381 19.2265625 35.67578125 C23.50000442 41.7110808 24.25783685 47.73344735 25 55 C24.34 55 23.68 55 23 55 C22.78085938 54.16597656 22.56171875 53.33195312 22.3359375 52.47265625 C20.4737711 45.86423646 18.42342769 40.55495087 14.39453125 34.99609375 C11.48649663 30.83361283 10 27.1449863 10 22 C9.34 22 8.68 22 8 22 C7.75765625 21.27554688 7.5153125 20.55109375 7.265625 19.8046875 C5.12488806 13.40936664 5.12488806 13.40936664 1.75 7.625 C-0.16361019 4.75458471 -0.39684794 3.3732075 0 0 Z " fill="#449B97" transform="translate(70,108)"/>
<path d="M0 0 C1.02975197 0.01077827 1.02975197 0.01077827 2.08030701 0.02177429 C2.78537888 0.02223251 3.49045074 0.02269073 4.21688843 0.02316284 C5.70726708 0.02618442 7.1976426 0.03406794 8.68797302 0.0464325 C10.97706709 0.06469849 13.26575703 0.06694213 15.55491638 0.06669617 C17.00088344 0.07161098 18.44684775 0.07743915 19.89280701 0.08427429 C20.92559532 0.08594353 20.92559532 0.08594353 21.97924805 0.08764648 C26.80409576 0.13618805 26.80409576 0.13618805 27.92015076 1.25224304 C28.22187821 4.64667691 28.27219512 6.64416642 26.54515076 9.62724304 C26.00890076 10.16349304 25.47265076 10.69974304 24.92015076 11.25224304 C24.26015076 11.25224304 23.60015076 11.25224304 22.92015076 11.25224304 C22.92015076 12.90224304 22.92015076 14.55224304 22.92015076 16.25224304 C22.26015076 16.25224304 21.60015076 16.25224304 20.92015076 16.25224304 C20.79511169 16.80525085 20.67007263 17.35825867 20.54124451 17.92802429 C19.85025896 20.51378783 18.95818586 22.94752694 17.98265076 25.43974304 C17.64362732 26.32017273 17.30460388 27.20060242 16.95530701 28.10771179 C15.92015076 30.25224304 15.92015076 30.25224304 13.92015076 31.25224304 C14.91855896 24.86243056 16.96907596 19.35571465 20.92015076 14.25224304 C22.8116558 10.25098238 24.13111567 6.59193603 24.92015076 2.25224304 C20.98687124 2.3211411 17.05452562 2.40911483 13.12205505 2.51469421 C11.12724446 2.56425623 9.13207818 2.59875438 7.13694763 2.63310242 C5.88333435 2.66855164 4.62972107 2.70400085 3.33811951 2.74052429 C2.18078308 2.76670837 1.02344666 2.79289246 -0.16896057 2.81987 C-3.05602512 3.01076591 -3.05602512 3.01076591 -4.85597229 4.59672546 C-5.97808196 6.11458417 -7.03279841 7.6816668 -8.07984924 9.25224304 C-7.05560695 0.03406244 -7.05560695 0.03406244 0 0 Z " fill="#3C8481" transform="translate(213.07984924316406,76.74775695800781)"/>
<path d="M0 0 C1 2 1 2 0.328125 4.171875 C-0.02765625 5.02265625 -0.3834375 5.8734375 -0.75 6.75 C-1.12125 7.63945312 -1.4925 8.52890625 -1.875 9.4453125 C-3.15683089 12.35613682 -4.51891685 15.18594202 -6 18 C-6.66 18 -7.32 18 -8 18 C-8.165 19.175625 -8.33 20.35125 -8.5 21.5625 C-9.56719636 26.46689503 -11.65302804 30.60674878 -14 35 C-14.35642578 35.6710376 -14.71285156 36.3420752 -15.08007812 37.03344727 C-17.73217441 41.86608721 -17.73217441 41.86608721 -20 43 C-19.71640113 41.5608866 -19.42278601 40.12374482 -19.125 38.6875 C-18.96257812 37.88699219 -18.80015625 37.08648437 -18.6328125 36.26171875 C-18 34 -18 34 -16 31 C-15.34 31 -14.68 31 -14 31 C-13.97421875 30.41992188 -13.9484375 29.83984375 -13.921875 29.2421875 C-13.51643951 23.65823502 -12.35113342 20.60780846 -9 16 C-8.21784412 13.2717496 -8.21784412 13.2717496 -8 11 C-6.68 11 -5.36 11 -4 11 C-3.87882812 10.37351563 -3.75765625 9.74703125 -3.6328125 9.1015625 C-3.46523437 8.28429687 -3.29765625 7.46703125 -3.125 6.625 C-2.96257812 5.81289062 -2.80015625 5.00078125 -2.6328125 4.1640625 C-2 2 -2 2 0 0 Z " fill="#38827F" transform="translate(216,128)"/>
<path d="M0 0 C0 0.66 0 1.32 0 2 C0.763125 2.268125 1.52625 2.53625 2.3125 2.8125 C4.95845952 3.9816449 6.16374503 4.82988049 8 7 C8.50660156 7.54785156 9.01320312 8.09570312 9.53515625 8.66015625 C11.50864255 11.81247169 11.58338136 14.36941812 11.8125 18.0625 C11.90144531 19.29097656 11.99039063 20.51945312 12.08203125 21.78515625 C12 25 12 25 10 28 C9.97421875 26.90300781 9.9484375 25.80601563 9.921875 24.67578125 C9.8655731 23.22131552 9.80822623 21.76688997 9.75 20.3125 C9.73582031 19.59126953 9.72164062 18.87003906 9.70703125 18.12695312 C9.48190021 13.19658341 8.62530844 10.61202892 5 7 C-1.40703335 1.84651665 -8.0470968 2.44302285 -16 3 C-18.00476859 3.30333814 -20.00703768 3.62688833 -22 4 C-22 3.34 -22 2.68 -22 2 C-15.74593212 -2.28850369 -7.0789466 -2.35964887 0 0 Z " fill="#47A59E" transform="translate(157,70)"/>
<path d="M0 0 C0.99134419 2.61739045 1.09832287 3.734787 0.109375 6.40234375 C-0.56351563 7.65724609 -0.56351563 7.65724609 -1.25 8.9375 C-1.71792969 9.82308594 -2.18585938 10.70867187 -2.66796875 11.62109375 C-3.59182242 13.27102597 -4.56028589 14.89645742 -5.5625 16.5 C-7.32533212 19.565795 -8.53718935 22.73381024 -9.82421875 26.0234375 C-11.21868251 29.55360821 -12.65677922 33.06245832 -14.125 36.5625 C-14.87136719 38.35880859 -14.87136719 38.35880859 -15.6328125 40.19140625 C-17 43 -17 43 -19 44 C-19.65213292 46.02463255 -19.65213292 46.02463255 -20 48 C-20.66 48 -21.32 48 -22 48 C-22.33 49.32 -22.66 50.64 -23 52 C-23.33 51.34 -23.66 50.68 -24 50 C-23.29296875 48.23046875 -23.29296875 48.23046875 -22.1875 46.1875 C-21.01921217 43.96655693 -19.93295498 41.83238744 -19 39.5 C-18.1184806 37.29620149 -17.13577978 35.23915866 -16.0625 33.125 C-14.20993875 29.47538495 -12.57399345 25.77758429 -11 22 C-10.34 22 -9.68 22 -9 22 C-8.9071875 20.824375 -8.9071875 20.824375 -8.8125 19.625 C-7.69371677 14.63350561 -5.38027126 10.49849432 -3 6 C-2.39202158 4.79358007 -1.78707228 3.58561963 -1.1875 2.375 C-0.795625 1.59125 -0.40375 0.8075 0 0 Z " fill="#449B94" transform="translate(204,86)"/>
<path d="M0 0 C3.11547582 2.5752199 4.0499085 5.36316306 5.375 9.125 C7.07117943 13.93661103 9.1583694 18.20235954 11.67138672 22.61767578 C13.90521418 26.6231312 15.89266841 30.74079531 17.875 34.875 C18.29007813 35.71546875 18.70515625 36.5559375 19.1328125 37.421875 C19.51953125 38.22882813 19.90625 39.03578125 20.3046875 39.8671875 C20.65515137 40.59019043 21.00561523 41.31319336 21.36669922 42.05810547 C22 44 22 44 21 47 C18.28464612 42.36966947 15.8449556 37.70195705 13.625 32.8125 C11.43138617 28.04119729 9.18303568 23.31205916 6.8125 18.625 C5.04146516 15.10192264 3.28525778 11.57683607 1.625 8 C1.30789062 7.319375 0.99078125 6.63875 0.6640625 5.9375 C0 4 0 4 0 0 Z " fill="#439892" transform="translate(117,141)"/>
<path d="M0 0 C5.16801607 6.5501599 8.1820658 14.21713411 11 22 C11.65129797 23.34090759 12.31513275 24.67592331 13 26 C14.3015797 28.96470931 15 30.73381035 15 34 C12 32 12 32 11.375 30.08984375 C11.12455963 28.6524204 10.87456116 27.21492 10.625 25.77734375 C10.41875 25.19082031 10.2125 24.60429687 10 24 C9.01 23.67 8.02 23.34 7 23 C2.13412889 15.76171412 0.03409729 8.66071107 0 0 Z " fill="#4CB3AB" transform="translate(101,107)"/>
<path d="M0 0 C-0.33 1.65 -0.66 3.3 -1 5 C-1.66 5 -2.32 5 -3 5 C-3.18175781 5.54527344 -3.36351562 6.09054688 -3.55078125 6.65234375 C-5.3671875 12.1015625 -7.18359375 17.55078125 -9 23 C-9.66 23 -10.32 23 -11 23 C-11.125 20.625 -11.125 20.625 -11 18 C-10.34 17.34 -9.68 16.68 -9 16 C-8.14853038 12.5941215 -7.92866747 10.32423876 -8.6875 6.875 C-9 4 -9 4 -7.375 1.625 C-4.6352257 -0.24958242 -3.24915145 -0.36101683 0 0 Z " fill="#5BE3D6" transform="translate(203,154)"/>
<path d="M0 0 C0.99 1.485 0.99 1.485 2 3 C3.2684375 4.423125 3.2684375 4.423125 4.5625 5.875 C6.96535843 8.95558773 7.38485029 10.30910172 8 14 C8.99 14.66 9.98 15.32 11 16 C11.94921875 18.8203125 11.94921875 18.8203125 12.6875 22.125 C13.06455078 23.76855469 13.06455078 23.76855469 13.44921875 25.4453125 C13.63097656 26.28835937 13.81273438 27.13140625 14 28 C13.34 27.67 12.68 27.34 12 27 C12 26.34 12 25.68 12 25 C11.34 25 10.68 25 10 25 C10 24.01 10 23.02 10 22 C9.34 22 8.68 22 8 22 C7.75765625 21.27554688 7.5153125 20.55109375 7.265625 19.8046875 C5.12488806 13.40936664 5.12488806 13.40936664 1.75 7.625 C-0.16361019 4.75458471 -0.39684794 3.3732075 0 0 Z " fill="#429793" transform="translate(70,108)"/>
<path d="M0 0 C0.66 0 1.32 0 2 0 C1.76525494 6.33811652 0.03768604 10.0340482 -3.37109375 15.33203125 C-6.02687201 19.68190308 -7.96758339 24.33596826 -10 29 C-10.33 29.66 -10.66 30.32 -11 31 C-11.66 31 -12.32 31 -13 31 C-12.42286127 26.96002891 -11.08225263 24.47042106 -9 21 C-8.3348556 19.36187577 -7.69087529 17.71507755 -7.0625 16.0625 C-5.48190015 11.96509885 -3.45829033 8.64505117 -1 5 C-0.21784412 2.2717496 -0.21784412 2.2717496 0 0 Z " fill="#41948F" transform="translate(168,160)"/>
<path d="M0 0 C1.25361328 0.00966797 2.50722656 0.01933594 3.79882812 0.02929688 C5.10916016 0.05443359 6.41949219 0.07957031 7.76953125 0.10546875 C9.10480288 0.12051908 10.44009062 0.13420688 11.77539062 0.14648438 C15.04467701 0.18189181 18.31315218 0.23127985 21.58203125 0.29296875 C21.32641802 2.63609005 20.98932353 4.97140278 20.58203125 7.29296875 C19.92203125 7.62296875 19.26203125 7.95296875 18.58203125 8.29296875 C18.58203125 6.31296875 18.58203125 4.33296875 18.58203125 2.29296875 C14.95709791 2.23509091 11.33228268 2.19941455 7.70703125 2.16796875 C6.15822266 2.14283203 6.15822266 2.14283203 4.578125 2.1171875 C3.59199219 2.11074219 2.60585937 2.10429688 1.58984375 2.09765625 C0.6786377 2.08718262 -0.23256836 2.07670898 -1.17138672 2.06591797 C-3.62087311 2.07425882 -3.62087311 2.07425882 -5.41796875 4.29296875 C-6.40796875 4.29296875 -7.39796875 4.29296875 -8.41796875 4.29296875 C-9.07796875 7.26296875 -9.73796875 10.23296875 -10.41796875 13.29296875 C-11.40796875 13.29296875 -12.39796875 13.29296875 -13.41796875 13.29296875 C-12.82369487 11.68511098 -12.21713287 10.08179166 -11.60546875 8.48046875 C-11.26902344 7.58714844 -10.93257812 6.69382812 -10.5859375 5.7734375 C-8.06246538 0.41422413 -5.85652818 -0.07950038 0 0 Z " fill="#5AD3CA" transform="translate(216.41796875,78.70703125)"/>
<path d="M0 0 C0 0.66 0 1.32 0 2 C-1.65071396 3.02611949 -3.31970006 4.02308143 -5 5 C-7.92043733 6.98990582 -8.04040438 8.20980027 -8.73046875 11.79296875 C-8.89601295 13.25637947 -9.04793087 14.72138394 -9.1875 16.1875 C-9.26935547 16.93708984 -9.35121094 17.68667969 -9.43554688 18.45898438 C-9.63540784 20.30475918 -9.81926538 22.15225433 -10 24 C-10.309375 23.360625 -10.61875 22.72125 -10.9375 22.0625 C-11.8345163 20.06389179 -11.8345163 20.06389179 -13 19 C-13.34223148 14.20875922 -12.44209192 10.50653726 -11 6 C-10.34 6 -9.68 6 -9 6 C-8.773125 5.38125 -8.54625 4.7625 -8.3125 4.125 C-6.36599536 0.97351629 -3.66041994 0 0 0 Z " fill="#49ABA4" transform="translate(139,73)"/>
<path d="M0 0 C2 1.25 2 1.25 4 3 C4 4.32 4 5.64 4 7 C4.66 7 5.32 7 6 7 C6.33 8.98 6.66 10.96 7 13 C7.66 13 8.32 13 9 13 C9.67220351 14.93558599 10.33758077 16.87354372 11 18.8125 C11.556875 20.43091797 11.556875 20.43091797 12.125 22.08203125 C13 25 13 25 13 28 C9.10117486 23.12646857 6.9719227 18.6277689 4.98046875 12.7265625 C4.06273707 10.17446403 2.99636924 7.84277398 1.75 5.4375 C0 2 0 2 0 0 Z " fill="#439A94" transform="translate(87,79)"/>
<path d="M0 0 C0.33 0.99 0.66 1.98 1 3 C1.99 3 2.98 3 4 3 C4.33 5.64 4.66 8.28 5 11 C6.32 11.33 7.64 11.66 9 12 C9 12.99 9 13.98 9 15 C9.66 15 10.32 15 11 15 C11.66 18.63 12.32 22.26 13 26 C9.63691264 23.16792643 7.77750248 21.08382638 6.875 16.8125 C6.40802187 12.77593188 6.40802187 12.77593188 3 11 C1.56086078 7.40215196 0.67244418 3.81051702 0 0 Z " fill="#50B7AE" transform="translate(117,206)"/>
<path d="M0 0 C2.31 0 4.62 0 7 0 C4.29384966 9.59453303 4.29384966 9.59453303 0 13 C-0.19551338 11.39679026 -0.38111983 9.79237014 -0.5625 8.1875 C-0.71912109 6.84751953 -0.71912109 6.84751953 -0.87890625 5.48046875 C-1 3 -1 3 0 0 Z " fill="#5DF0DD" transform="translate(180,186)"/>
<path d="M0 0 C0.99 0.495 0.99 0.495 2 1 C2 1.66 2 2.32 2 3 C2.66 3 3.32 3 4 3 C4.81604999 4.9151579 5.62770632 6.83218834 6.4375 8.75 C6.88996094 9.81734375 7.34242187 10.8846875 7.80859375 11.984375 C8.73979553 14.3413841 9.4784072 16.52992835 10 19 C10.66 19 11.32 19 12 19 C12.33 21.31 12.66 23.62 13 26 C7.7005588 21.25676837 4.93890933 13.6980504 3 7 C2.34 7 1.68 7 1 7 C0.67 4.69 0.34 2.38 0 0 Z " fill="#58D2C6" transform="translate(94,156)"/>
<path d="M0 0 C0 3 0 3 -1.37890625 4.80859375 C-3.9154503 8.23751233 -4.6798788 12.16026817 -5.83984375 16.22265625 C-7.11038254 19.26424911 -8.21706488 20.32094311 -11 22 C-10.06942768 18.12559792 -8.8951224 14.34072096 -7.71875 10.53515625 C-6.9432273 7.98903503 -6.9432273 7.98903503 -6.5625 5.26171875 C-6.376875 4.51535156 -6.19125 3.76898438 -6 3 C-3.5 1.75 -3.5 1.75 -1 1 C-0.67 0.67 -0.34 0.34 0 0 Z " fill="#59D9CC" transform="translate(234,89)"/>
<path d="M0 0 C0.33 0 0.66 0 1 0 C0.67 3.63 0.34 7.26 0 11 C-0.66 11 -1.32 11 -2 11 C-2 11.66 -2 12.32 -2 13 C-2.66 13 -3.32 13 -4 13 C-4 13.99 -4 14.98 -4 16 C-4.66 16.33 -5.32 16.66 -6 17 C-6.72159424 18.64363134 -7.39351421 20.31050386 -8 22 C-9 19 -9 19 -8.328125 17.203125 C-7.97234375 16.55859375 -7.6165625 15.9140625 -7.25 15.25 C-5.84541232 12.61518724 -4.52698983 10.00527464 -3.375 7.25 C-2.32768335 4.77452428 -1.23880271 2.3823129 0 0 Z " fill="#3F908B" transform="translate(179,138)"/>
<path d="M0 0 C0.33 0.66 0.66 1.32 1 2 C-0.46615298 5.77010767 -2.13404221 9.41161963 -4 13 C-7.64566186 12.01468598 -8.80178732 11.31053319 -10.875 8.0625 C-12 5 -12 5 -11 2 C-10.8453125 2.9590625 -10.8453125 2.9590625 -10.6875 3.9375 C-10.460625 4.618125 -10.23375 5.29875 -10 6 C-9.01 6.33 -8.02 6.66 -7 7 C-7 7.99 -7 8.98 -7 10 C-4.44140308 8.72070154 -4.13851266 7.55728932 -2.9375 5 C-1.08474576 1.08474576 -1.08474576 1.08474576 0 0 Z " fill="#5CD4CB" transform="translate(154,253)"/>
<path d="M0 0 C1.32 0.33 2.64 0.66 4 1 C4.33 3.97 4.66 6.94 5 10 C5.66 10 6.32 10 7 10 C7 11.32 7 12.64 7 14 C7.66 14 8.32 14 9 14 C9.33 16.64 9.66 19.28 10 22 C7.97653517 18.96480275 6.20145388 15.88029335 4.4375 12.6875 C3.81746094 11.57761719 3.19742188 10.46773437 2.55859375 9.32421875 C1.05624568 6.11996259 0.38628965 3.49777338 0 0 Z " fill="#5BCFC7" transform="translate(109,187)"/>
<path d="M0 0 C0.66 0.33 1.32 0.66 2 1 C-0.50529823 6.75685551 -3.15149769 12.40472761 -6 18 C-6.66 18 -7.32 18 -8 18 C-4.57142857 4.57142857 -4.57142857 4.57142857 0 0 Z " fill="#3D8B86" transform="translate(192,177)"/>
<path d="M0 0 C0.99 0.33 1.98 0.66 3 1 C4.38671875 3.8359375 4.38671875 3.8359375 5.6875 7.375 C6.12449219 8.53773437 6.56148438 9.70046875 7.01171875 10.8984375 C8 14 8 14 8 17 C8.66 17 9.32 17 10 17 C9.67 18.32 9.34 19.64 9 21 C8.32880451 19.5437455 7.66318193 18.08492133 7 16.625 C6.62875 15.81289062 6.2575 15.00078125 5.875 14.1640625 C5 12 5 12 5 10 C4.34 10 3.68 10 3 10 C2.49596232 8.70990357 1.99690074 7.41786211 1.5 6.125 C1.2215625 5.40570313 0.943125 4.68640625 0.65625 3.9453125 C0 2 0 2 0 0 Z " fill="#57D0C5" transform="translate(64,93)"/>
<path d="M0 0 C0.33 0 0.66 0 1 0 C1.76115897 17.61237275 1.76115897 17.61237275 -3 23 C-7.83870968 26 -7.83870968 26 -11 26 C-11 25.34 -11 24.68 -11 24 C-9.27473958 23.12109375 -7.54947917 22.2421875 -5.82421875 21.36328125 C-3.32477443 19.49538817 -2.31130097 17.84115211 -1 15 C-0.63774319 12.33146704 -0.40199569 9.85958571 -0.3125 7.1875 C-0.27833984 6.49462891 -0.24417969 5.80175781 -0.20898438 5.08789062 C-0.12713656 3.39247151 -0.06187635 1.69626542 0 0 Z " fill="#4DB4AB" transform="translate(166,82)"/>
<path d="M0 0 C1.33332095 2.6666419 0.67102033 4.16680303 0 7 C-0.66 7 -1.32 7 -2 7 C-2.12503906 7.55300781 -2.25007812 8.10601562 -2.37890625 8.67578125 C-3.0698918 11.26154479 -3.96196489 13.6952839 -4.9375 16.1875 C-5.27652344 17.06792969 -5.61554688 17.94835937 -5.96484375 18.85546875 C-7 21 -7 21 -9 22 C-8.00871864 15.65579929 -5.99402422 10.03594358 -2 5 C-1.28837557 3.35202764 -0.60968047 1.68834592 0 0 Z " fill="#39827F" transform="translate(236,86)"/>
<path d="M0 0 C0.625 1.875 0.625 1.875 1 4 C0.34 4.66 -0.32 5.32 -1 6 C-1.6425235 8.06874034 -1.6425235 8.06874034 -2 10 C-2.66 10 -3.32 10 -4 10 C-4 11.32 -4 12.64 -4 14 C-4.66 14 -5.32 14 -6 14 C-6.33 15.32 -6.66 16.64 -7 18 C-8 16 -8 16 -7.25 13.25 C-6.01748315 10.04545618 -4.59227441 7.0397966 -3 4 C-2.34 4 -1.68 4 -1 4 C-0.67 2.68 -0.34 1.36 0 0 Z " fill="#3E8E8A" transform="translate(177,208)"/>
<path d="M0 0 C4.28760234 3.4005122 5.96367838 7.74090992 7 13 C6.67 13.99 6.34 14.98 6 16 C5.0026228 14.27121286 4.0068947 12.54143106 3.0234375 10.8046875 C2.27692538 9.48831881 1.51727858 8.17937359 0.75 6.875 C-0.19771055 4.50572363 -0.14038535 2.52693627 0 0 Z " fill="#3E8985" transform="translate(105,181)"/>
<path d="M0 0 C1.4765625 1.0078125 1.4765625 1.0078125 3 3 C3.29965637 5.72040979 3.41901345 8.16083753 3.375 10.875 C3.38660156 11.58269531 3.39820313 12.29039063 3.41015625 13.01953125 C3.38496245 17.52922107 2.68902987 20.37194382 0 24 C-1.34794719 21.30410561 -0.40931243 19.96922612 0.453125 17.21875 C1.51861696 12.89589691 1.69551729 8.43102473 2 4 C1.34 4 0.68 4 0 4 C0 2.68 0 1.36 0 0 Z " fill="#5EE1D5" transform="translate(163,78)"/>
<path d="M0 0 C1 2 1 2 0.328125 4.171875 C-0.02765625 5.02265625 -0.3834375 5.8734375 -0.75 6.75 C-1.12125 7.63945312 -1.4925 8.52890625 -1.875 9.4453125 C-3.15683089 12.35613682 -4.51891685 15.18594202 -6 18 C-6.33 18 -6.66 18 -7 18 C-7 16.02 -7 14.04 -7 12 C-6.01 11.67 -5.02 11.34 -4 11 C-3.26733263 8.95811462 -3.26733263 8.95811462 -2.9375 6.5625 C-2.2027027 2.2027027 -2.2027027 2.2027027 0 0 Z " fill="#3A8582" transform="translate(216,128)"/>
<path d="M0 0 C1.98 0.99 1.98 0.99 4 2 C4 3.65 4 5.3 4 7 C5.32 7.66 6.64 8.32 8 9 C8 10.98 8 12.96 8 15 C3.86232737 10.56677932 2.04471126 5.60120371 0 0 Z " fill="#53C7BF" transform="translate(134,241)"/>
<path d="M0 0 C1.10823705 3.76322221 0.85362237 5.46929072 -1 9 C-3.125 11.3125 -3.125 11.3125 -5 13 C-5.83861979 7.63283335 -2.92070405 4.20372761 0 0 Z " fill="#3F8A86" transform="translate(183,195)"/>
<path d="M0 0 C0.33 0.66 0.66 1.32 1 2 C0.5875 2.680625 0.175 3.36125 -0.25 4.0625 C-2.51035956 7.85667498 -3.70846262 11.79563364 -5 16 C-5.66 16 -6.32 16 -7 16 C-6.27392513 10.37291978 -4.04737798 4.04737798 0 0 Z " fill="#54CAC0" transform="translate(217,123)"/>
<path d="M0 0 C3.76425934 1.88212967 4.78116705 6.41260628 6.1875 10.1875 C7 13 7 13 7 16 C3.33471601 13.55647734 3.1062002 12.12397918 1.8125 8 C1.46832031 6.9275 1.12414062 5.855 0.76953125 4.75 C0 2 0 2 0 0 Z " fill="#47A39D" transform="translate(109,125)"/>
<path d="M0 0 C2.31962709 2.31962709 3.30985217 4.46509652 4.6875 7.4375 C5.14511719 8.40558594 5.60273438 9.37367188 6.07421875 10.37109375 C7 13 7 13 6 16 C0 5.8 0 5.8 0 0 Z " fill="#3B8B86" transform="translate(132,172)"/>
<path d="M0 0 C0.33 0 0.66 0 1 0 C1.56561146 5.65611463 -0.28608722 9.22642128 -3 14 C-3.66 14 -4.32 14 -5 14 C-4.42923685 10.00465792 -3.09958585 7.411827 -1 4 C-0.30420546 1.80869466 -0.30420546 1.80869466 0 0 Z " fill="#3C8B87" transform="translate(160,177)"/>
<path d="M0 0 C4.43601966 3.51822249 5.52033129 7.75390186 7 13 C6.34 13 5.68 13 5 13 C4.87625 12.360625 4.7525 11.72125 4.625 11.0625 C4.41875 10.381875 4.2125 9.70125 4 9 C3.34 8.67 2.68 8.34 2 8 C0.6250851 5.09740189 0 3.23861295 0 0 Z " fill="#3C8683" transform="translate(98,168)"/>
<path d="M0 0 C0.33 0 0.66 0 1 0 C1.34833144 4.87664009 0.41685712 7.77050005 -2 12 C-2.66 12 -3.32 12 -4 12 C-2 3.42857143 -2 3.42857143 0 0 Z " fill="#58D1C8" transform="translate(173,154)"/>
<path d="M0 0 C0.66 0.33 1.32 0.66 2 1 C0.83311977 6.63992111 -0.54612799 10.39483731 -4 15 C-4.75 13.375 -4.75 13.375 -5 11 C-3.70672372 8.97386717 -2.3703055 6.97485205 -1 5 C-0.21784412 2.2717496 -0.21784412 2.2717496 0 0 Z " fill="#53BEB8" transform="translate(208,139)"/>
<path d="M0 0 C0 0.66 0 1.32 0 2 C-1.63790712 3.04644066 -3.31008021 4.0398183 -5 5 C-6.34631825 5.98244845 -7.68441297 6.97676564 -9 8 C-8.25 3.25 -8.25 3.25 -6 1 C-3.90200436 0.34437636 -2.19959601 0 0 0 Z " fill="#51B7AF" transform="translate(139,73)"/>
<path d="M0 0 C2.64492308 1.32246154 2.97833787 2.64535898 4.1875 5.3125 C4.55230469 6.09238281 4.91710937 6.87226562 5.29296875 7.67578125 C6.07807525 10.2566562 5.89937661 11.49663962 5 14 C2.46690767 9.35796103 0.53484401 5.34844008 0 0 Z " fill="#58CFC5" transform="translate(104,117)"/>
<path d="M0 0 C0.66 0 1.32 0 2 0 C1.39009109 3.55780196 0.4216319 6.6828589 -1 10 C-1.66 10 -2.32 10 -3 10 C-3 8.02 -3 6.04 -3 4 C-2.34 3.67 -1.68 3.34 -1 3 C-0.67 2.01 -0.34 1.02 0 0 Z " fill="#57D8CB" transform="translate(168,221)"/>
<path d="M0 0 C1.32 0.33 2.64 0.66 4 1 C4.33 3.64 4.66 6.28 5 9 C3.0625 7.875 3.0625 7.875 1 6 C0.25 2.8125 0.25 2.8125 0 0 Z " fill="#59DBCD" transform="translate(109,187)"/>
<path d="M0 0 C0.91058531 3.07322544 1.08886184 5.80097361 1 9 C-0.65 9.66 -2.3 10.32 -4 11 C-3.52269162 9.5410574 -3.04308958 8.08286504 -2.5625 6.625 C-2.29566406 5.81289062 -2.02882812 5.00078125 -1.75390625 4.1640625 C-1 2 -1 2 0 0 Z " fill="#5AE1D9" transform="translate(163,176)"/>
<path d="M0 0 C2 0 2 0 4.125 1.625 C6.47736015 4.60465619 6.33663062 6.29706315 6 10 C2.79851787 7.86567858 2.47793261 7.31580104 1.3125 3.875 C1.06113281 3.15054688 0.80976562 2.42609375 0.55078125 1.6796875 C0.36902344 1.12539062 0.18726562 0.57109375 0 0 Z " fill="#3F8C88" transform="translate(80,133)"/>
<path d="M0 0 C1.12377697 3.30435084 0.89554742 5.0506862 -0.4375 8.25 C-0.72496094 8.95640625 -1.01242188 9.6628125 -1.30859375 10.390625 C-1.53675781 10.92171875 -1.76492187 11.4528125 -2 12 C-2.66 12 -3.32 12 -4 12 C-3.45660208 7.43545749 -2.20536179 4.0271824 0 0 Z " fill="#5CE1D5" transform="translate(193,113)"/>
<path d="M0 0 C1.890625 0.6171875 1.890625 0.6171875 4 2 C5.046875 4.8203125 5.046875 4.8203125 5.75 8.125 C5.99234375 9.22070312 6.2346875 10.31640625 6.484375 11.4453125 C6.65453125 12.28835937 6.8246875 13.13140625 7 14 C4.2065758 12.6032879 4.03557041 11.00586915 2.9375 8.125 C2.59589844 7.24070313 2.25429687 6.35640625 1.90234375 5.4453125 C1.2367278 3.64152209 0.6080053 1.8240159 0 0 Z " fill="#54C6BB" transform="translate(77,122)"/>
<path d="M0 0 C0.99 0.33 1.98 0.66 3 1 C3.94921875 3.28515625 3.94921875 3.28515625 4.6875 6.0625 C4.93886719 6.98160156 5.19023438 7.90070313 5.44921875 8.84765625 C5.63097656 9.55792969 5.81273438 10.26820312 6 11 C1.9957657 7.50912907 0.37328935 5.35048061 0 0 Z " fill="#4AA7A1" transform="translate(95,96)"/>
<path d="M0 0 C0.33 0.99 0.66 1.98 1 3 C1.99 3 2.98 3 4 3 C4.33 5.97 4.66 8.94 5 12 C3 11 3 11 1.9375 8.25 C1.14502508 5.5027536 0.49646926 2.81332583 0 0 Z " fill="#43958F" transform="translate(117,206)"/>
<path d="M0 0 C2.18840439 3.28260659 4.15885893 6.50818073 6 10 C5.67 10.66 5.34 11.32 5 12 C1.35224614 8.11690718 0.41474367 5.28798182 0 0 Z " fill="#5EDED4" transform="translate(122,156)"/>
<path d="M0 0 C0.33 0.66 0.66 1.32 1 2 C-1.48387097 8.74193548 -1.48387097 8.74193548 -4 10 C-3.5205537 5.78087253 -2.83374881 3.20336822 0 0 Z " fill="#55C7B9" transform="translate(154,253)"/>
<path d="M0 0 C0.33 0 0.66 0 1 0 C0.51171875 6.0546875 0.51171875 6.0546875 0 8 C-0.99 8.66 -1.98 9.32 -3 10 C-2.69201674 8.51988629 -2.378482 7.04092675 -2.0625 5.5625 C-1.88847656 4.73878906 -1.71445313 3.91507812 -1.53515625 3.06640625 C-1 1 -1 1 0 0 Z " fill="#3D8C88" transform="translate(225,108)"/>
<path d="M0 0 C0.928125 1.175625 0.928125 1.175625 1.875 2.375 C3.89858661 4.96837647 3.89858661 4.96837647 6 7 C5.625 9.125 5.625 9.125 5 11 C4.67 10.01 4.34 9.02 4 8 C3.34 7.67 2.68 7.34 2 7 C2 6.01 2 5.02 2 4 C1.01 4 0.02 4 -1 4 C-0.67 2.68 -0.34 1.36 0 0 Z " fill="#5EDBD1" transform="translate(95,100)"/>
<path d="M0 0 C2.31 0 4.62 0 7 0 C6.74438677 2.3431213 6.40729228 4.67843403 6 7 C5.01 7.495 5.01 7.495 4 8 C4 6.02 4 4.04 4 2 C2.68 1.34 1.36 0.68 0 0 Z " fill="#5FD5D1" transform="translate(231,79)"/>
<path d="M0 0 C3.44216672 2.6598561 3.99504674 5.90288286 5 10 C4.34 9.67 3.68 9.34 3 9 C3 8.34 3 7.68 3 7 C2.34 7 1.68 7 1 7 C0.67 4.69 0.34 2.38 0 0 Z " fill="#57DAD3" transform="translate(130,173)"/>
<path d="M0 0 C0.99 1.485 0.99 1.485 2 3 C2.8353125 4.2375 2.8353125 4.2375 3.6875 5.5 C4.120625 6.325 4.55375 7.15 5 8 C4.67 8.99 4.34 9.98 4 11 C1.17438373 7.20307814 -0.56638908 4.81430721 0 0 Z " fill="#3B8381" transform="translate(70,108)"/>
<path d="M0 0 C3.67230705 3.07999946 4.56802365 5.2482602 5 10 C4.34 10 3.68 10 3 10 C0 3.375 0 3.375 0 0 Z " fill="#377D79" transform="translate(60,89)"/>
<path d="M0 0 C3.0916909 2.52956528 3.90931332 5.22454612 5 9 C4.01 8.67 3.02 8.34 2 8 C1.26953125 6.15234375 1.26953125 6.15234375 0.8125 3.9375 C0.65394531 3.20402344 0.49539062 2.47054687 0.33203125 1.71484375 C0.22246094 1.14894531 0.11289063 0.58304688 0 0 Z " fill="#3A7E7C" transform="translate(112,197)"/>
<path d="M0 0 C1 2 1 2 0.1875 5.5625 C-1 9 -1 9 -3 10 C-2.69201674 8.51988629 -2.378482 7.04092675 -2.0625 5.5625 C-1.88847656 4.73878906 -1.71445313 3.91507813 -1.53515625 3.06640625 C-1 1 -1 1 0 0 Z " fill="#40948F" transform="translate(199,161)"/>
<path d="M0 0 C1.9375 1.0625 1.9375 1.0625 4 3 C4.75 6.6875 4.75 6.6875 5 10 C3 9 3 9 2.1484375 6.93359375 C1.89320312 6.10988281 1.63796875 5.28617187 1.375 4.4375 C1.11460938 3.61121094 0.85421875 2.78492187 0.5859375 1.93359375 C0.39257812 1.29550781 0.19921875 0.65742187 0 0 Z " fill="#4AA69E" transform="translate(87,79)"/>
<path d="M0 0 C0.625 1.8125 0.625 1.8125 1 4 C0.01 5.485 0.01 5.485 -1 7 C-1.99 7 -2.98 7 -4 7 C-4 6.01 -4 5.02 -4 4 C-2.68 3.67 -1.36 3.34 0 3 C0 2.01 0 1.02 0 0 Z " fill="#5DDDD3" transform="translate(151,203)"/>
<path d="M0 0 C1.33332095 2.6666419 0.67102033 4.16680303 0 7 C-0.66 7 -1.32 7 -2 7 C-2.33 7.66 -2.66 8.32 -3 9 C-3.26218749 5.85375007 -3.24754367 4.38162983 -1.5 1.6875 C-1.005 1.130625 -0.51 0.57375 0 0 Z " fill="#54C7BE" transform="translate(179,142)"/>
</svg>
