<?xml version="1.0" encoding="UTF-8"?>
<svg version="1.1" xmlns="http://www.w3.org/2000/svg" width="2000" height="2000">
<path d="M0 0 C660 0 1320 0 2000 0 C2000 660 2000 1320 2000 2000 C1340 2000 680 2000 0 2000 C0 1340 0 680 0 0 Z " fill="#141F25" transform="translate(0,0)"/>
<path d="M0 0 C11.56859362 8.5724111 21.15131042 20.54821557 23.71484375 35.01171875 C25.65470339 53.91233106 23.51940354 70.57891764 11.71484375 86.01171875 C2.85832253 96.87914092 -11.65364653 104.45884595 -25.4140625 106.7265625 C-44.47335883 108.61952663 -61.74670182 105.56637973 -77.2890625 93.72265625 C-89.13733206 83.56699663 -95.92060128 70.4295823 -98.28515625 55.01171875 C-99.26795096 38.81450598 -96.26396961 23.84740011 -85.44287109 11.25585938 C-78.01809164 3.04559337 -69.7073129 -3.15973391 -59.28515625 -6.98828125 C-58.5478125 -7.28734375 -57.81046875 -7.58640625 -57.05078125 -7.89453125 C-38.54414607 -14.25987074 -16.27760537 -10.29351999 0 0 Z " fill="#FBFBFB" transform="translate(1491.28515625,1029.98828125)"/>
<path d="M0 0 C1.93720146 3.25802063 2 5.15044673 2 9 C2.66 9 3.32 9 4 9 C4.495 11.97 4.495 11.97 5 15 C5.66 15 6.32 15 7 15 C7.18433594 15.66902344 7.36867188 16.33804688 7.55859375 17.02734375 C9.816417 24.5032474 12.9440917 31.05209153 16.73803711 37.85913086 C19.28901134 42.47141017 21.23164498 47.03252998 23 52 C23.65129797 53.34090759 24.31513275 54.67592331 25 56 C25.28875 56.78375 25.5775 57.5675 25.875 58.375 C26.92334264 61.08767564 26.92334264 61.08767564 28.8125 63.5 C31.57276582 67.45638101 32.96340397 71.96950324 34.55859375 76.48828125 C36.02235482 80.05446337 37.77135036 83.26706823 39.67358398 86.61108398 C41.89623946 90.61415482 43.85206925 94.73884993 45.8125 98.875 C46.21919922 99.71546875 46.62589844 100.5559375 47.04492188 101.421875 C47.42841797 102.22882813 47.81191406 103.03578125 48.20703125 103.8671875 C48.72487183 104.95169189 48.72487183 104.95169189 49.25317383 106.05810547 C50 108 50 108 50 111 C50.66 111 51.32 111 52 111 C52.69699552 112.45381897 53.38233866 113.91322953 54.0625 115.375 C54.44535156 116.18710937 54.82820312 116.99921875 55.22265625 117.8359375 C55.47917969 118.55007813 55.73570312 119.26421875 56 120 C55.67 120.66 55.34 121.32 55 122 C55.66 122 56.32 122 57 122 C57.66 123.32 58.32 124.64 59 126 C61.90472664 121.22794909 64.05650135 116.48198483 66.06640625 111.2734375 C67.13483513 108.67165671 68.55413066 106.40978223 70 104 C70.6628348 102.36093988 71.3067693 100.71418001 71.9375 99.0625 C73.51809985 94.96509885 75.54170967 91.64505117 78 88 C78.78215588 85.2717496 78.78215588 85.2717496 79 83 C79.66 83 80.32 83 81 83 C81.103125 82.113125 81.20625 81.22625 81.3125 80.3125 C82.02910089 76.85978663 83.1286071 74.95104265 85 72 C85.72626531 70.30675254 86.4513649 68.61297707 87.16601562 66.91479492 C88.77431825 63.22219612 90.65083123 59.65962548 92.48242188 56.07421875 C94.15846431 52.76595199 95.64749541 49.45121862 97 46 C97.62947165 44.70028122 98.27468668 43.40803623 98.9375 42.125 C100.79006125 38.47538495 102.42600655 34.77758429 104 31 C104.66 31 105.32 31 106 31 C106.061875 30.21625 106.12375 29.4325 106.1875 28.625 C107.30546419 23.63715978 109.61098676 19.4913449 112 15 C113.75244672 11.68982287 115.03869993 8.86341202 116.0625 5.25 C117 2 117 2 119 0 C121.42567119 -0.18713986 123.73497667 -0.25585278 126.16015625 -0.23046875 C126.86522812 -0.23001053 127.57029999 -0.22955231 128.29673767 -0.2290802 C129.78711632 -0.22605863 131.27749184 -0.2181751 132.76782227 -0.20581055 C135.05691633 -0.18754456 137.34560627 -0.18530091 139.63476562 -0.18554688 C141.08073269 -0.18063206 142.52669699 -0.1748039 143.97265625 -0.16796875 C145.00544456 -0.16629951 145.00544456 -0.16629951 146.05909729 -0.16459656 C150.88394501 -0.11605499 150.88394501 -0.11605499 152 1 C152.62844162 6.40459791 151.08330375 8.66670824 148 13 C145.11935435 18.28921225 142.63166719 23.77666553 140.125 29.25 C136.57911501 36.99063037 132.78977887 44.60513145 128.87890625 52.16796875 C126.81555925 56.18336187 125.04492743 60.26736731 123.3125 64.4375 C119.33343783 73.83701931 114.65561181 83.01028863 109.3359375 91.7265625 C108.05972992 93.89835435 107.17256508 95.9504676 106.3125 98.3125 C104.20279371 103.76189577 101.58509387 108.89466525 98.93188477 114.0925293 C96.63348553 118.63058791 94.66632073 123.20039913 92.8671875 127.9609375 C91.62095918 130.89125815 89.78889878 133.37628179 88 136 C87.71125 136.886875 87.4225 137.77375 87.125 138.6875 C86.03071825 141.90955182 84.6595394 144.53768209 83 147.5 C80.88308079 151.28168091 79.24902486 154.83658379 78 159 C77.34 159.99 76.68 160.98 76 162 C75.34 162 74.68 162 74 162 C73.896875 162.53625 73.79375 163.0725 73.6875 163.625 C72.81907303 166.62502044 71.44379704 169.2379535 70 172 C69.34 172 68.68 172 68 172 C67.87496094 172.5671875 67.74992188 173.134375 67.62109375 173.71875 C66.96902269 176.1137783 66.08766815 178.24076152 65.0625 180.5 C64.55396484 181.62921875 64.55396484 181.62921875 64.03515625 182.78125 C63.05894873 184.87364951 62.04374792 186.94058707 61 189 C57.48757976 188.04645636 56.19416653 187.27975831 54.0859375 184.2421875 C53.52132812 183.13101563 52.95671875 182.01984375 52.375 180.875 C51.48361328 179.13089844 51.48361328 179.13089844 50.57421875 177.3515625 C49.31466549 174.66993298 48.18521345 172.03549441 47.1875 169.25 C46.38790864 165.90786118 46.38790864 165.90786118 44 165 C42.83874429 161.81399074 41.8375197 158.61483781 40.85546875 155.37109375 C40.28790405 153.5639399 39.64865965 151.77965597 39 150 C38.34 149.67 37.68 149.34 37 149 C33.39230628 143.66333608 32.29379107 138.34588709 32 132 C31.01 132 30.02 132 29 132 C28.69707031 131.26394531 28.39414062 130.52789063 28.08203125 129.76953125 C25.65722523 124.12159846 23.4985925 120.26182447 19 116 C16.85996674 111.86752199 15.57507462 108.6741792 16 104 C15.34 104 14.68 104 14 104 C13.87625 103.360625 13.7525 102.72125 13.625 102.0625 C13.41875 101.381875 13.2125 100.70125 13 100 C12.01 99.505 12.01 99.505 11 99 C9.96484375 97.07421875 9.96484375 97.07421875 8.9375 94.6875 C8.59589844 93.90761719 8.25429688 93.12773438 7.90234375 92.32421875 C7.08711691 90.22439203 6.48741918 88.19589876 6 86 C5.34 86 4.68 86 4 86 C3.78085937 85.16597656 3.56171875 84.33195313 3.3359375 83.47265625 C1.4737711 76.86423646 -0.57657231 71.55495087 -4.60546875 65.99609375 C-7.51350337 61.83361283 -9 58.1449863 -9 53 C-9.66 53 -10.32 53 -11 53 C-11.24234375 52.27554688 -11.4846875 51.55109375 -11.734375 50.8046875 C-13.87511194 44.40936664 -13.87511194 44.40936664 -17.25 38.625 C-19.16361019 35.75458471 -19.39684794 34.3732075 -19 31 C-19.66 31 -20.32 31 -21 31 C-21 30.01 -21 29.02 -21 28 C-21.66 28 -22.32 28 -23 28 C-23.33 26.02 -23.66 24.04 -24 22 C-24.66 22 -25.32 22 -26 22 C-26.42152344 20.92878906 -26.84304688 19.85757813 -27.27734375 18.75390625 C-27.83059319 17.35671698 -28.38398602 15.95958449 -28.9375 14.5625 C-29.21529297 13.85544922 -29.49308594 13.14839844 -29.77929688 12.41992188 C-30.96222034 8.95326119 -30.96222034 8.95326119 -33 6 C-33.125 3.5 -33.125 3.5 -33 1 C-30.35158675 -1.64841325 -22.88981696 -0.49484615 -19.3125 -0.625 C-18.12720703 -0.6765625 -16.94191406 -0.728125 -15.72070312 -0.78125 C-14.57150391 -0.82507813 -13.42230469 -0.86890625 -12.23828125 -0.9140625 C-11.18680908 -0.9548291 -10.13533691 -0.9955957 -9.05200195 -1.03759766 C-5.89972231 -0.99876468 -3.06614314 -0.73911736 0 0 Z " fill="#6CFCEE" transform="translate(942,766)"/>
<path d="M0 0 C71.35294118 0 71.35294118 0 85 13 C92.71976088 21.37345031 95.58025443 28.92177845 95.5 40.25 C95.49500488 41.17441895 95.49000977 42.09883789 95.48486328 43.05126953 C95.23753863 52.7788038 92.59911453 61.25710936 85.81640625 68.46484375 C76.90076336 76 76.90076336 76 72 76 C76.59668307 83.49388824 81.54904922 90.67972006 86.63867188 97.84350586 C97 112.43263766 97 112.43263766 97 114 C77.81637471 116.51493386 77.81637471 116.51493386 72.00830078 112.6875 C67.47592744 107.90171257 64.61274409 101.66955466 61.98388672 95.68798828 C58.40614778 87.6899932 58.40614778 87.6899932 52 82 C42.08391457 79.72006552 32.11489234 80.64664132 22 81 C22 91.89 22 102.78 22 114 C14.74 114 7.48 114 0 114 C0 76.38 0 38.76 0 0 Z " fill="#F8F8F9" transform="translate(1565,1021)"/>
<path d="M0 0 C6.93 0 13.86 0 21 0 C26.10885917 10.05400904 30.94909862 20.14819988 35.46990967 30.47769165 C37.17975982 34.38269258 38.90363517 38.28147974 40.62890625 42.1796875 C40.98529175 42.98503433 41.34167725 43.79038116 41.7088623 44.62013245 C45.67508537 53.55864573 49.77348592 62.43548289 53.875 71.3125 C58.68592455 81.73567254 63.46888997 92.1661873 68.0625 102.6875 C68.6800415 104.0947937 68.6800415 104.0947937 69.31005859 105.53051758 C69.67309082 106.36993896 70.03612305 107.20936035 70.41015625 108.07421875 C70.87627319 109.15062622 70.87627319 109.15062622 71.35180664 110.2487793 C72 112 72 112 72 114 C64.74 114 57.48 114 50 114 C46.37 105.75 42.74 97.5 39 89 C20.19 88.67 1.38 88.34 -18 88 C-18.99 90.97 -19.98 93.94 -21 97 C-22.17618803 99.85572289 -23.36965329 102.68078917 -24.625 105.5 C-24.93695313 106.21414063 -25.24890625 106.92828125 -25.5703125 107.6640625 C-27.86367985 112.86367985 -27.86367985 112.86367985 -29 114 C-30.56172745 114.08685603 -32.12729344 114.10702219 -33.69140625 114.09765625 C-34.63564453 114.09443359 -35.57988281 114.09121094 -36.55273438 114.08789062 C-37.54595703 114.07951172 -38.53917969 114.07113281 -39.5625 114.0625 C-40.55958984 114.05798828 -41.55667969 114.05347656 -42.58398438 114.04882812 C-45.05604849 114.03700007 -47.52799518 114.02051849 -50 114 C-49.35464302 109.69474288 -47.80140153 106.02800222 -45.96484375 102.12109375 C-45.65491486 101.44987488 -45.34498596 100.77865601 -45.02566528 100.08709717 C-44.35364972 98.63258863 -43.67932807 97.17914382 -43.00296021 95.72665405 C-41.16438783 91.77645922 -39.3446835 87.81758058 -37.5234375 83.859375 C-37.14621048 83.04047287 -36.76898346 82.22157074 -36.38032532 81.37785339 C-32.53356475 73.01382334 -28.78868449 64.60578723 -25.0625 56.1875 C-23.7514656 53.22779213 -22.44018712 50.26819243 -21.12890625 47.30859375 C-20.6353791 46.19432259 -20.6353791 46.19432259 -20.13188171 45.05754089 C-15.94537512 35.61092719 -11.72214033 26.18072668 -7.5 16.75 C-7.1203006 15.90174652 -6.7406012 15.05349304 -6.34939575 14.17953491 C-4.23353782 9.45275088 -2.11688942 4.72632241 0 0 Z " fill="#FBFBFB" transform="translate(381,1021)"/>
<path d="M0 0 C27.39 0 54.78 0 83 0 C83 5.94 83 11.88 83 18 C62.54 18 42.08 18 21 18 C21 27.9 21 37.8 21 48 C39.15 48 57.3 48 76 48 C76 53.61 76 59.22 76 65 C57.85 65 39.7 65 21 65 C21 75.23 21 85.46 21 96 C42.12 96 63.24 96 85 96 C85 101.94 85 107.88 85 114 C56.95 114 28.9 114 0 114 C0 76.38 0 38.76 0 0 Z " fill="#FCFCFC" transform="translate(995,1021)"/>
<path d="M0 0 C27.06 0 54.12 0 82 0 C82 5.61 82 11.22 82 17 C61.87 17 41.74 17 21 17 C21 26.9 21 36.8 21 47 C38.82 47 56.64 47 75 47 C75 52.61 75 58.22 75 64 C57.18 64 39.36 64 21 64 C21 74.23 21 84.46 21 95 C42.12 95 63.24 95 85 95 C85 100.94 85 106.88 85 113 C56.95 113 28.9 113 0 113 C0 75.71 0 38.42 0 0 Z " fill="#FDFDFD" transform="translate(641,1022)"/>
<path d="M0 0 C1.15822266 0.72896484 1.15822266 0.72896484 2.33984375 1.47265625 C10.15004871 6.96968903 16.21809132 14.6848653 18.55859375 24.046875 C20.48096142 36.90802509 19.78690406 48.97974703 11.9453125 59.84765625 C3.85563192 69.35093154 -4.94599067 74.25485605 -17.46484375 75.28515625 C-30.26436985 75.60479697 -39.59358263 72.61764729 -49.1640625 64.06640625 C-57.1133577 55.95336152 -60.43949897 46.53482378 -60.5 35.3125 C-60.22949321 23.01191745 -56.85473203 13.65125204 -47.89453125 4.95703125 C-45.67844364 3.11748242 -43.43669534 1.53361293 -41 0 C-40.32066406 -0.43441406 -39.64132812 -0.86882812 -38.94140625 -1.31640625 C-28.33653448 -6.74171498 -10.05530322 -6.43005159 0 0 Z " fill="#162126" transform="translate(1475,1043)"/>
<path d="M0 0 C3.32145423 2.58144111 6.35855256 5.32565781 9.1875 8.4375 C7.63747253 12.32147689 5.18273379 14.46729619 2.0625 17.1875 C1.15242188 17.98671875 0.24234375 18.7859375 -0.6953125 19.609375 C-1.39398437 20.21265625 -2.09265625 20.8159375 -2.8125 21.4375 C-5.50773488 20.1657225 -7.52428725 18.89654169 -9.9375 17.0625 C-17.70810537 11.59549789 -24.45368938 10.07347568 -33.875 10 C-34.71377686 9.9899292 -35.55255371 9.9798584 -36.41674805 9.96948242 C-48.01671757 10.12963083 -57.48702109 14.71476839 -65.5625 23 C-73.10511355 32.26563482 -74.87967266 42.79954948 -73.8125 54.4375 C-72.71483226 63.20400857 -68.0978243 72.29184958 -61.8125 78.4375 C-50.39846103 86.28583093 -39.46084321 88.72007931 -25.6484375 87.19921875 C-17.82087632 85.60471555 -10.20662587 81.26013119 -4.8125 75.4375 C-0.90964233 77.02417578 1.52270982 79.57100481 4.4375 82.5625 C5.32953125 83.47257812 6.2215625 84.38265625 7.140625 85.3203125 C7.81609375 86.01898437 8.4915625 86.71765625 9.1875 87.4375 C5.92931674 95.23634291 -2.39542316 99.51143581 -9.75 102.8125 C-27.08171093 109.67802166 -45.70046467 109.35951482 -62.875 102.15234375 C-79.91247437 93.46419986 -88.80535544 80.91237916 -94.921875 63.23046875 C-98.76357841 46.86953008 -95.9089499 30.2451047 -87.125 16.0625 C-67.50622723 -11.32280383 -28.20692395 -18.91523135 0 0 Z " fill="#FBFBFB" transform="translate(1218.8125,1029.5625)"/>
<path d="M0 0 C2.1630945 1.87060059 4.23356676 3.67726928 6.109375 5.8359375 C6.109375 7.8359375 6.109375 7.8359375 4.5703125 9.38671875 C3.88195312 9.96808594 3.19359375 10.54945312 2.484375 11.1484375 C1.75992188 11.76460937 1.03546875 12.38078125 0.2890625 13.015625 C-0.78988281 13.91667969 -0.78988281 13.91667969 -1.890625 14.8359375 C-2.50679687 15.35414062 -3.12296875 15.87234375 -3.7578125 16.40625 C-5.13037623 17.55552585 -6.5097233 18.6966936 -7.890625 19.8359375 C-8.32890625 19.38863281 -8.7671875 18.94132812 -9.21875 18.48046875 C-18.8008765 9.34628719 -28.38228265 7.11643456 -41.3046875 7.31665039 C-52.75372047 7.77820502 -60.75754004 11.64676229 -68.890625 19.8359375 C-74.87421427 27.84702396 -77.24223826 35.25278296 -77.203125 45.1484375 C-77.21923828 45.95216797 -77.23535156 46.75589844 -77.25195312 47.58398438 C-77.26055734 58.27901896 -73.31779169 67.03093009 -66.0390625 74.81640625 C-56.51242384 83.71679177 -46.14299885 85.40966623 -33.51953125 85.17578125 C-23.23989173 84.67132327 -15.44106024 79.45210171 -7.890625 72.8359375 C-2.42027287 76.62630839 2.00899927 80.58621403 6.109375 85.8359375 C-3.9847194 97.57680259 -17.82852932 103.46587146 -33.01806641 105.05908203 C-50.06944774 106.29897048 -66.43054354 101.69990412 -79.734375 90.76171875 C-92.06211611 79.75161663 -98.9401112 65.60763 -100.16796875 49.109375 C-100.55649134 33.84820778 -96.65724901 20.07312632 -86.453125 8.4609375 C-84.95071232 6.90131374 -83.43144239 5.35763127 -81.890625 3.8359375 C-81.34921875 3.27261719 -80.8078125 2.70929688 -80.25 2.12890625 C-59.02637635 -18.18360224 -22.54449061 -16.87790243 0 0 Z " fill="#FBFBFB" transform="translate(586.890625,1032.1640625)"/>
<path d="M0 0 C7.59 0 15.18 0 23 0 C28.68227265 11.99506486 34.00786983 24.11956322 39.25 36.3125 C40.0915096 38.26478349 40.93314466 40.21701291 41.77490234 42.16918945 C45.42480884 50.64111828 49.06278033 59.11783985 52.6484375 67.6171875 C53.04313232 68.5527372 53.04313232 68.5527372 53.44580078 69.50718689 C54.62409079 72.3032844 55.79761668 75.10128343 56.96582031 77.90161133 C57.36124023 78.84544678 57.75666016 79.78928223 58.1640625 80.76171875 C58.49873535 81.56569092 58.8334082 82.36966309 59.17822266 83.19799805 C59.8643905 84.98104628 59.8643905 84.98104628 61 86 C73.68040861 57.18046723 73.68040861 57.18046723 86.25 28.3125 C86.74910889 27.15991699 87.24821777 26.00733398 87.76245117 24.81982422 C89.73810358 20.25114896 91.7130244 15.68252456 93.65429688 11.09912109 C94.06575958 10.13041328 94.06575958 10.13041328 94.48553467 9.14213562 C95.25621947 7.32626064 96.02418198 5.50923099 96.79199219 3.69213867 C98 1 98 1 99 0 C100.56172745 -0.08685603 102.12729344 -0.10702219 103.69140625 -0.09765625 C104.63564453 -0.09443359 105.57988281 -0.09121094 106.55273438 -0.08789062 C107.54595703 -0.07951172 108.53917969 -0.07113281 109.5625 -0.0625 C110.55958984 -0.05798828 111.55667969 -0.05347656 112.58398438 -0.04882812 C115.05604849 -0.03700007 117.52799518 -0.02051849 120 0 C118.36522076 5.26325644 116.23629678 10.23764153 114.02734375 15.27734375 C113.63228134 16.18427979 113.23721893 17.09121582 112.83018494 18.02563477 C111.53503678 20.99731571 110.23628021 23.96740489 108.9375 26.9375 C108.03442776 29.00778912 107.13159845 31.07818422 106.22900391 33.14868164 C104.38468033 37.37837054 102.53892943 41.60743189 100.69189453 45.8359375 C98.20707358 51.524785 95.72576077 57.21515437 93.24609375 62.90625 C92.50455992 64.60807406 91.76302351 66.309897 91.02148438 68.01171875 C90.66481689 68.83027344 90.30814941 69.64882812 89.94067383 70.4921875 C88.54351431 73.69813245 87.14562597 76.90375933 85.74771118 80.109375 C80.82304611 91.4024493 75.90951268 102.70032795 71 114 C63.74 114 56.48 114 49 114 C48.42636719 112.62199219 47.85273437 111.24398438 47.26171875 109.82421875 C41.29799115 95.57914644 35.1313238 81.43123736 28.875 67.3125 C22.74378947 53.47195439 16.6208115 39.62815581 10.56036377 25.75643921 C9.81796907 24.05795458 9.07461764 22.35988779 8.33026123 20.66226196 C7.29960935 18.3111221 6.27237056 15.95852101 5.24609375 13.60546875 C4.79430504 12.57714432 4.79430504 12.57714432 4.33338928 11.52804565 C2.67403804 7.71078178 1.32257519 3.96772558 0 0 Z " fill="#FAFBFB" transform="translate(833,1021)"/>
<path d="M0 0 C31.68 0 63.36 0 96 0 C96 6.27 96 12.54 96 19 C83.79 19 71.58 19 59 19 C59 50.35 59 81.7 59 114 C51.74 114 44.48 114 37 114 C37 82.65 37 51.3 37 19 C24.79 19 12.58 19 0 19 C0 12.73 0 6.46 0 0 Z " fill="#F5F5F5" transform="translate(1262,1021)"/>
<path d="M0 0 C7.6725 -0.12375 7.6725 -0.12375 15.5 -0.25 C17.09779297 -0.28641602 18.69558594 -0.32283203 20.34179688 -0.36035156 C29.32131147 -0.43046868 35.46409668 0.03108459 42.5 6.1875 C44.63087779 10.18289585 44.65722325 13.56374307 44 18 C42.56198079 21.69776369 41.02022624 24.41123465 38 27 C38.928125 27.556875 39.85625 28.11375 40.8125 28.6875 C44.10187 31.07390568 45.50576496 32.26441241 47 36 C47.74808805 41.61066039 47.38901543 46.29910763 44 51 C38.04434055 55.48832306 32.62208062 56.15111346 25.390625 56.09765625 C24.74593262 56.09664917 24.10124023 56.09564209 23.43701172 56.09460449 C21.04132291 56.08939402 18.64565957 56.07543281 16.25 56.0625 C10.8875 56.041875 5.525 56.02125 0 56 C0 37.52 0 19.04 0 0 Z " fill="#F7F7F7" transform="translate(1023,1200)"/>
<path d="M0 0 C8.353125 -0.1546875 8.353125 -0.1546875 16.875 -0.3125 C19.47930908 -0.38078003 19.47930908 -0.38078003 22.13623047 -0.45043945 C31.70111762 -0.5972299 39.67388187 -0.11613975 46.95068359 6.8737793 C52.06952461 12.43534346 52.35161744 17.28010196 52.27734375 24.69921875 C51.75521234 30.91331789 49.53336859 34.46663141 45.1875 38.8125 C38.91440531 43.11756498 34.11613294 44.45192612 26.66015625 44.29296875 C25.9791687 44.28994751 25.29818115 44.28692627 24.59655762 44.28381348 C22.08504795 44.2682749 19.57375659 44.22639241 17.0625 44.1875 C11.431875 44.125625 5.80125 44.06375 0 44 C0 29.48 0 14.96 0 0 Z " fill="#152025" transform="translate(1587,1040)"/>
<path d="M0 0 C0 0.66 0 1.32 0 2 C1.1446875 2.4021875 1.1446875 2.4021875 2.3125 2.8125 C4.95845952 3.9816449 6.16374503 4.82988049 8 7 C8.50273438 7.55558594 9.00546875 8.11117187 9.5234375 8.68359375 C12.59308058 13.49919785 12.26258611 19.44905173 12 25 C10.80184579 30.09399305 8.57534577 32.90023031 4.30859375 35.87890625 C-1.66898158 39.16924465 -7.16474642 41.35338021 -14 40 C-20.8056504 37.54996586 -26.31922593 33.04506995 -29.4375 26.5 C-31.93263396 20.0961798 -31.0333332 15.35416624 -29 9 C-28.34 9 -27.68 9 -27 9 C-26.731875 8.360625 -26.46375 7.72125 -26.1875 7.0625 C-25 5 -25 5 -22 4 C-22 3.34 -22 2.68 -22 2 C-15.74593212 -2.28850369 -7.0789466 -2.35964887 0 0 Z " fill="#6EFCEE" transform="translate(1010,759)"/>
<path d="M0 0 C2.31 0 4.62 0 7 0 C9.27611317 4.93907254 11.55059562 9.87889196 13.82373047 14.81933594 C14.59316668 16.49107905 15.36300707 18.1626362 16.13330078 19.83398438 C20.32217217 28.92356151 24.48352874 38.02454874 28.5625 47.1640625 C28.90925781 47.93825531 29.25601563 48.71244812 29.61328125 49.51010132 C32 54.8806006 32 54.8806006 32 56 C29.69 56 27.38 56 25 56 C22.03 49.07 22.03 49.07 19 42 C8.44 41.67 -2.12 41.34 -13 41 C-13.99 43.97 -14.98 46.94 -16 50 C-16.95723017 52.02081924 -17.93988057 54.03120677 -19 56 C-20.98 56 -22.96 56 -25 56 C-23.0059372 49.54521871 -20.52726111 43.47372622 -17.65625 37.36328125 C-17.24588501 36.48020798 -16.83552002 35.5971347 -16.41271973 34.68730164 C-15.1130096 31.89356441 -13.80652565 29.10305524 -12.5 26.3125 C-11.62327134 24.42923499 -10.74696549 22.54577308 -9.87109375 20.66210938 C-3.04069764 5.99619291 -3.04069764 5.99619291 0 0 Z " fill="#F4F5F5" transform="translate(949,1200)"/>
<path d="M0 0 C2.69197494 1.34598747 2.89837986 2.65801887 4.06298828 5.41210938 C4.66338425 6.81861755 4.66338425 6.81861755 5.27590942 8.25354004 C5.70306244 9.27330933 6.13021545 10.29307861 6.5703125 11.34375 C7.0114035 12.38317749 7.45249451 13.42260498 7.9069519 14.49353027 C8.83966546 16.69473509 9.76919248 18.89729241 10.69580078 21.10107422 C12.12003006 24.48818047 13.55324875 27.87136482 14.98828125 31.25390625 C15.89115105 33.38779833 16.79351214 35.52190574 17.6953125 37.65625 C18.12651398 38.67601929 18.55771545 39.69578857 19.00198364 40.74645996 C19.3959433 41.68413208 19.78990295 42.6218042 20.19580078 43.58789062 C20.71969894 44.83246033 20.71969894 44.83246033 21.25418091 46.10217285 C22 48 22 48 22 49 C8.14 49 -5.72 49 -20 49 C-16.625 38.875 -16.625 38.875 -15.09887695 35.30639648 C-14.58868767 34.10617104 -14.58868767 34.10617104 -14.06819153 32.88169861 C-13.71182114 32.05319901 -13.35545074 31.2246994 -12.98828125 30.37109375 C-12.61519333 29.49598648 -12.24210541 28.62087921 -11.85771179 27.71925354 C-10.67928293 24.95724189 -9.49598183 22.19734973 -8.3125 19.4375 C-7.50683681 17.55157095 -6.70149521 15.66550448 -5.89648438 13.77929688 C-3.93470134 9.18460197 -1.96854949 4.59179972 0 0 Z " fill="#182328" transform="translate(391,1043)"/>
<path d="M0 0 C0 1.32 0 2.64 0 4 C-0.66 4.66 -1.32 5.32 -2 6 C-3.5159375 5.2575 -3.5159375 5.2575 -5.0625 4.5 C-11.36002112 2.14125105 -18.39875775 2.06118951 -25 3 C-28.72937309 5.25113154 -28.72937309 5.25113154 -30.62890625 9 C-30.60699219 9.66 -30.58507813 10.32 -30.5625 11 C-30.56378906 11.66 -30.56507812 12.32 -30.56640625 13 C-29.71600281 16.00280387 -28.47786113 17.09575397 -26 19 C-23.31000611 20.07848863 -20.55571997 20.78666594 -17.75 21.5 C-4.14529237 25.24786918 -4.14529237 25.24786918 1.5 30.1875 C3.64229155 34.20429666 3.75552941 37.54313962 3 42 C1.6357333 45.79368281 -0.23868918 48.42901688 -3.5 50.875 C-11.18971053 54.33536974 -21.92836719 54.3719417 -30.046875 52.17578125 C-33.24156533 50.77157913 -35.52638519 49.47361481 -38 47 C-37.625 44.375 -37.625 44.375 -37 42 C-36.42121094 42.29648438 -35.84242187 42.59296875 -35.24609375 42.8984375 C-26.21480479 47.32769574 -17.11180937 48.52795234 -7.25 46.0625 C-4.72878571 43.7513869 -4.42132787 42.83831719 -3.8125 39.5625 C-3.67562632 36.18445754 -3.71955786 35.35522671 -5.875 32.625 C-10.8145708 30.05642318 -15.87347654 28.53990775 -21.26171875 27.171875 C-32.53637121 24.13787502 -32.53637121 24.13787502 -36.1015625 19.125 C-37.94253879 14.77069086 -37.90102313 10.58828703 -37 6 C-34.25549242 1.13071236 -30.67791652 -1.29337623 -25.58203125 -3.3046875 C-16.44269305 -5.76581034 -8.45483228 -3.72811502 0 0 Z " fill="#F0F1F1" transform="translate(1150,1203)"/>
<path d="M0 0 C3.85435694 -0.05415958 7.70794559 -0.09375289 11.5625 -0.125 C12.64853516 -0.14175781 13.73457031 -0.15851563 14.85351562 -0.17578125 C27.61991717 -0.25338855 27.61991717 -0.25338855 33.4375 3.625 C35.66277164 7.00741289 35.76947267 10.12955249 35 14 C32.83487611 17.55698925 30.85156543 19.49660396 27 21 C24.06738281 21.22705078 24.06738281 21.22705078 20.703125 21.1953125 C18.89521484 21.18564453 18.89521484 21.18564453 17.05078125 21.17578125 C15.16939453 21.15064453 15.16939453 21.15064453 13.25 21.125 C11.98027344 21.11597656 10.71054688 21.10695313 9.40234375 21.09765625 C6.26814871 21.07409087 3.13405059 21.03822013 0 21 C0 14.07 0 7.14 0 0 Z " fill="#172227" transform="translate(1029,1230)"/>
<path d="M0 0 C4.04238572 -0.1081173 8.0818685 -0.18738513 12.125 -0.25 C13.26710938 -0.28351563 14.40921875 -0.31703125 15.5859375 -0.3515625 C26.20998773 -0.47509797 26.20998773 -0.47509797 31 4 C32.77500756 7.55001512 32.4206609 11.48562075 31.375 15.25 C29.20785464 18.008185 27.3160071 18.73893374 24 20 C19.86776791 20.36307083 15.76900015 20.28268022 11.625 20.1875 C9.94857422 20.16719727 9.94857422 20.16719727 8.23828125 20.14648438 C5.49197912 20.11127537 2.74592643 20.05747288 0 20 C0 13.4 0 6.8 0 0 Z " fill="#172227" transform="translate(1029,1205)"/>
<path d="M0 0 C0.68650131 0.00718552 1.37300262 0.01437103 2.08030701 0.02177429 C2.78537888 0.02223251 3.49045074 0.02269073 4.21688843 0.02316284 C5.70726708 0.02618442 7.1976426 0.03406794 8.68797302 0.0464325 C10.97706709 0.06469849 13.26575703 0.06694213 15.55491638 0.06669617 C17.00088344 0.07161098 18.44684775 0.07743915 19.89280701 0.08427429 C20.92559532 0.08594353 20.92559532 0.08594353 21.97924805 0.08764648 C26.80409576 0.13618805 26.80409576 0.13618805 27.92015076 1.25224304 C28.54859237 6.65684095 27.00345451 8.91895128 23.92015076 13.25224304 C21.0395051 18.54145529 18.55181795 24.02890857 16.04515076 29.50224304 C12.49926577 37.24287341 8.70992963 44.85737449 4.79905701 52.42021179 C2.73571001 56.43560491 0.96507819 60.51961035 -0.76734924 64.68974304 C-4.74641141 74.08926235 -9.42423743 83.26253167 -14.74391174 91.97880554 C-16.02011933 94.15059739 -16.90728416 96.20271064 -17.76734924 98.56474304 C-19.87705553 104.01413882 -22.49475538 109.14690829 -25.14796448 114.34477234 C-27.44636372 118.88283095 -29.41352851 123.45264217 -31.21266174 128.21318054 C-32.45889007 131.14350119 -34.29095046 133.62852483 -36.07984924 136.25224304 C-36.36859924 137.13911804 -36.65734924 138.02599304 -36.95484924 138.93974304 C-38.04913099 142.16179486 -39.42030985 144.78992513 -41.07984924 147.75224304 C-43.19676845 151.53392396 -44.83082438 155.08882684 -46.07984924 159.25224304 C-46.73984924 160.24224304 -47.39984924 161.23224304 -48.07984924 162.25224304 C-48.73984924 162.25224304 -49.39984924 162.25224304 -50.07984924 162.25224304 C-50.20359924 162.89161804 -50.32734924 163.53099304 -50.45484924 164.18974304 C-50.66109924 164.87036804 -50.86734924 165.55099304 -51.07984924 166.25224304 C-51.73984924 166.58224304 -52.39984924 166.91224304 -53.07984924 167.25224304 C-52.62788679 165.64626979 -52.16802597 164.04251797 -51.70484924 162.43974304 C-51.44961487 161.54642273 -51.19438049 160.65310242 -50.93141174 159.73271179 C-50.07984924 157.25224304 -50.07984924 157.25224304 -48.07984924 154.25224304 C-47.41984924 154.25224304 -46.75984924 154.25224304 -46.07984924 154.25224304 C-45.92516174 153.13849304 -45.92516174 153.13849304 -45.76734924 152.00224304 C-45.02071486 149.0157055 -43.91572771 147.67560262 -42.07984924 145.25224304 C-41.39959287 143.25682436 -40.73494427 141.25606313 -40.07984924 139.25224304 C-39.45209524 137.97238251 -38.80483348 136.70197626 -38.14234924 135.43974304 C-36.64501839 132.55006025 -35.53640375 129.73735195 -34.57984924 126.62724304 C-33.66970501 123.73446029 -32.87123687 121.9426892 -31.14234924 119.37724304 C-28.7082852 115.68926722 -27.47192255 112.02022735 -26.10719299 107.83818054 C-25.07245412 105.23362871 -23.77796029 103.45746123 -22.07984924 101.25224304 C-21.83234924 100.26224304 -21.58484924 99.27224304 -21.32984924 98.25224304 C-19.85827792 92.45475945 -16.47056369 87.12239658 -13.07984924 82.25224304 C-12.41984924 82.25224304 -11.75984924 82.25224304 -11.07984924 82.25224304 C-10.97672424 81.59224304 -10.87359924 80.93224304 -10.76734924 80.25224304 C-9.7342884 75.74434116 -8.14950323 71.39155101 -6.07984924 67.25224304 C-5.41984924 67.25224304 -4.75984924 67.25224304 -4.07984924 67.25224304 C-3.98703674 65.33411804 -3.98703674 65.33411804 -3.89234924 63.37724304 C-3.21230695 57.0668506 -0.60261865 50.77501245 3.92015076 46.25224304 C4.56782869 43.68162993 4.56782869 43.68162993 4.92015076 41.25224304 C5.58015076 41.25224304 6.24015076 41.25224304 6.92015076 41.25224304 C7.00265076 40.71599304 7.08515076 40.17974304 7.17015076 39.62724304 C8.18202451 36.42297616 10.04827508 34.03169481 11.92015076 31.25224304 C12.63588603 29.60605191 13.32272036 27.94496249 13.92015076 26.25224304 C14.58015076 26.25224304 15.24015076 26.25224304 15.92015076 26.25224304 C16.00265076 25.20036804 16.08515076 24.14849304 16.17015076 23.06474304 C16.99884965 18.85219034 18.19422731 17.45921181 20.92015076 14.25224304 C22.84808387 10.25356695 24.12359106 6.59982117 24.92015076 2.25224304 C20.98687124 2.3211411 17.05452562 2.40911483 13.12205505 2.51469421 C11.12724446 2.56425623 9.13207818 2.59875438 7.13694763 2.63310242 C5.88333435 2.66855164 4.62972107 2.70400085 3.33811951 2.74052429 C2.18078308 2.76670837 1.02344666 2.79289246 -0.16896057 2.81987 C-3.05602512 3.01076591 -3.05602512 3.01076591 -4.85597229 4.59672546 C-5.97808196 6.11458417 -7.03279841 7.6816668 -8.07984924 9.25224304 C-7.05560695 0.03406244 -7.05560695 0.03406244 0 0 Z " fill="#38827F" transform="translate(1066.079849243164,765.7477569580078)"/>
<path d="M0 0 C1.93720146 3.25802063 2 5.15044673 2 9 C2.66 9 3.32 9 4 9 C4.495 11.97 4.495 11.97 5 15 C5.66 15 6.32 15 7 15 C7.67220351 16.93558599 8.33758077 18.87354372 9 20.8125 C9.37125 21.89144531 9.7425 22.97039063 10.125 24.08203125 C11 27 11 27 11 30 C7.10117486 25.12646857 4.9719227 20.6277689 2.98046875 14.7265625 C2.06273707 12.17446403 0.99636924 9.84277398 -0.25 7.4375 C-2 4 -2 4 -2 2 C-11.24 2 -20.48 2 -30 2 C-28.26011842 7.23746259 -28.26011842 7.23746259 -26.0625 12.1875 C-25.74410156 12.84105469 -25.42570313 13.49460937 -25.09765625 14.16796875 C-24.08510982 16.04895821 -24.08510982 16.04895821 -22.5078125 17.39453125 C-20.48233966 19.55118757 -19.78809154 21.71900343 -18.8125 24.5 C-18.46832031 25.4590625 -18.12414062 26.418125 -17.76953125 27.40625 C-17 30 -17 30 -17 33 C-16.34 33 -15.68 33 -15 33 C-12.10207337 39.42583732 -12.10207337 39.42583732 -11.5 42.8125 C-11.17727403 45.378367 -11.17727403 45.378367 -8 47 C-6.9375 49.609375 -6.9375 49.609375 -6 52.75 C-4.40582441 57.80323582 -2.73172169 62.35983415 0.19140625 66.81640625 C3.39118433 71.69726178 5.40158552 76.38605645 7 82 C7.66 82 8.32 82 9 82 C9.81604999 83.9151579 10.62770632 85.83218834 11.4375 87.75 C11.88996094 88.81734375 12.34242188 89.8846875 12.80859375 90.984375 C13.73979553 93.3413841 14.4784072 95.52992835 15 98 C15.66 98 16.32 98 17 98 C17.81313676 100.9164905 18.6255335 103.83318369 19.4375 106.75 C19.66759766 107.575 19.89769531 108.4 20.13476562 109.25 C20.35712891 110.04921875 20.57949219 110.8484375 20.80859375 111.671875 C21.01282959 112.4050293 21.21706543 113.13818359 21.42749023 113.89355469 C21.9790563 115.92294147 22.49755982 117.95795396 23 120 C19.27844005 116.79175867 17.62088529 113.61952308 16 109 C15.8125 106.0625 15.8125 106.0625 16 104 C15.34 104 14.68 104 14 104 C13.87625 103.360625 13.7525 102.72125 13.625 102.0625 C13.41875 101.381875 13.2125 100.70125 13 100 C12.01 99.505 12.01 99.505 11 99 C9.96484375 97.07421875 9.96484375 97.07421875 8.9375 94.6875 C8.59589844 93.90761719 8.25429688 93.12773438 7.90234375 92.32421875 C7.08711691 90.22439203 6.48741918 88.19589876 6 86 C5.34 86 4.68 86 4 86 C3.78085937 85.16597656 3.56171875 84.33195313 3.3359375 83.47265625 C1.4737711 76.86423646 -0.57657231 71.55495087 -4.60546875 65.99609375 C-7.51350337 61.83361283 -9 58.1449863 -9 53 C-9.66 53 -10.32 53 -11 53 C-11.24234375 52.27554688 -11.4846875 51.55109375 -11.734375 50.8046875 C-13.87511194 44.40936664 -13.87511194 44.40936664 -17.25 38.625 C-19.16361019 35.75458471 -19.39684794 34.3732075 -19 31 C-19.66 31 -20.32 31 -21 31 C-21 30.01 -21 29.02 -21 28 C-21.66 28 -22.32 28 -23 28 C-23.33 26.02 -23.66 24.04 -24 22 C-24.66 22 -25.32 22 -26 22 C-26.42152344 20.92878906 -26.84304688 19.85757813 -27.27734375 18.75390625 C-27.83059319 17.35671698 -28.38398602 15.95958449 -28.9375 14.5625 C-29.21529297 13.85544922 -29.49308594 13.14839844 -29.77929688 12.41992188 C-30.96222034 8.95326119 -30.96222034 8.95326119 -33 6 C-33.125 3.5 -33.125 3.5 -33 1 C-30.35158675 -1.64841325 -22.88981696 -0.49484615 -19.3125 -0.625 C-18.12720703 -0.6765625 -16.94191406 -0.728125 -15.72070312 -0.78125 C-14.57150391 -0.82507813 -13.42230469 -0.86890625 -12.23828125 -0.9140625 C-11.18680908 -0.9548291 -10.13533691 -0.9955957 -9.05200195 -1.03759766 C-5.89972231 -0.99876468 -3.06614314 -0.73911736 0 0 Z " fill="#51BEB6" transform="translate(942,766)"/>
<path d="M0 0 C1.98 0 3.96 0 6 0 C6 16.83 6 33.66 6 51 C16.56 51 27.12 51 38 51 C38 52.65 38 54.3 38 56 C25.46 56 12.92 56 0 56 C0 37.52 0 19.04 0 0 Z " fill="#F5F5F5" transform="translate(852,1200)"/>
<path d="M0 0 C3.66703846 4.5842973 5.78863083 9.74118537 8.1875 15.0625 C8.65091797 16.06861328 9.11433594 17.07472656 9.59179688 18.11132812 C10.24825195 19.55862305 10.24825195 19.55862305 10.91796875 21.03515625 C11.31781982 21.9156665 11.7176709 22.79617676 12.12963867 23.70336914 C13 26 13 26 13 29 C4.42 29 -4.16 29 -13 29 C-9.33375401 18.91782353 -4.92304353 9.51625537 0 0 Z " fill="#1A2429" transform="translate(952,1207)"/>
<path d="M0 0 C0 0.66 0 1.32 0 2 C1.1446875 2.4021875 1.1446875 2.4021875 2.3125 2.8125 C4.95845952 3.9816449 6.16374503 4.82988049 8 7 C8.50273438 7.55558594 9.00546875 8.11117187 9.5234375 8.68359375 C12.59308058 13.49919785 12.26258611 19.44905173 12 25 C10.80184579 30.09399305 8.57534577 32.90023031 4.30859375 35.87890625 C-1.66898158 39.16924465 -7.16474642 41.35338021 -14 40 C-20.8056504 37.54996586 -26.31922593 33.04506995 -29.4375 26.5 C-31.93263396 20.0961798 -31.0333332 15.35416624 -29 9 C-28.34 9 -27.68 9 -27 9 C-26.731875 8.360625 -26.46375 7.72125 -26.1875 7.0625 C-25 5 -25 5 -22 4 C-22 3.34 -22 2.68 -22 2 C-15.74593212 -2.28850369 -7.0789466 -2.35964887 0 0 Z M-18 3 C-18 3.66 -18 4.32 -18 5 C-18.556875 5.061875 -19.11375 5.12375 -19.6875 5.1875 C-23.28399603 6.45113374 -24.72005612 7.91899476 -27 11 C-28.4666929 17.09241665 -28.70037566 23.26170173 -26 29 C-22.44114865 32.77745401 -18.14612766 36.86636814 -12.86328125 37.1953125 C-11.69152344 37.17210937 -10.51976562 37.14890625 -9.3125 37.125 C-8.13300781 37.10695313 -6.95351563 37.08890625 -5.73828125 37.0703125 C-4.83464844 37.04710937 -3.93101562 37.02390625 -3 37 C-3 36.34 -3 35.68 -3 35 C-2.278125 35.0825 -1.55625 35.165 -0.8125 35.25 C2.91755397 34.91843965 4.34685381 33.58143954 7 31 C9.51893338 27.30497925 9.36712726 23.38069546 9.375 19.0625 C9.41173828 18.00772461 9.41173828 18.00772461 9.44921875 16.93164062 C9.46967171 13.29442317 9.14243267 11.22089134 7.15625 8.140625 C1.78379472 2.80710055 -1.80134408 1.74900384 -9.3125 1.6875 C-13.82164585 1.65303857 -13.82164585 1.65303857 -18 3 Z " fill="#50BCB4" transform="translate(1010,759)"/>
<path d="M0 0 C0.99134419 2.61739045 1.09832287 3.734787 0.109375 6.40234375 C-0.56351563 7.65724609 -0.56351563 7.65724609 -1.25 8.9375 C-1.68828125 9.77152344 -2.1265625 10.60554687 -2.578125 11.46484375 C-4 14 -4 14 -5.515625 16.20703125 C-8.03595972 20.94923999 -8.91642935 26.19358407 -10.10546875 31.40234375 C-10.30785156 32.23378906 -10.51023437 33.06523438 -10.71875 33.921875 C-10.89341797 34.68081055 -11.06808594 35.43974609 -11.24804688 36.22167969 C-11.49619141 36.80852539 -11.74433594 37.39537109 -12 38 C-13.485 38.495 -13.485 38.495 -15 39 C-15.103125 39.70125 -15.20625 40.4025 -15.3125 41.125 C-16.09359003 44.39137647 -17.42058743 47.0471852 -19 50 C-19.66 50 -20.32 50 -21 50 C-22.46939453 54.30322683 -23.77443263 58.62297367 -25 63 C-25.66 63 -26.32 63 -27 63 C-27 63.66 -27 64.32 -27 65 C-27.66 65 -28.32 65 -29 65 C-29 65.99 -29 66.98 -29 68 C-29.99 68.495 -29.99 68.495 -31 69 C-31.72159424 70.64363134 -32.39351421 72.31050386 -33 74 C-34 71 -34 71 -33.328125 69.203125 C-32.97234375 68.55859375 -32.6165625 67.9140625 -32.25 67.25 C-30.57996316 64.18411148 -29.16979358 61.07212889 -27.81201172 57.85546875 C-26.20579702 54.18522471 -24.33949632 50.64069132 -22.51757812 47.07421875 C-20.84153569 43.76595199 -19.35250459 40.45121862 -18 37 C-17.37052835 35.70028122 -16.72531332 34.40803623 -16.0625 33.125 C-14.20993875 29.47538495 -12.57399345 25.77758429 -11 22 C-10.34 22 -9.68 22 -9 22 C-8.938125 21.21625 -8.87625 20.4325 -8.8125 19.625 C-7.69371677 14.63350561 -5.38027126 10.49849432 -3 6 C-2.39202158 4.79358007 -1.78707228 3.58561963 -1.1875 2.375 C-0.795625 1.59125 -0.40375 0.8075 0 0 Z " fill="#5AD0C8" transform="translate(1057,775)"/>
<path d="M0 0 C1.93720146 3.25802063 2 5.15044673 2 9 C2.66 9 3.32 9 4 9 C4.495 11.97 4.495 11.97 5 15 C5.66 15 6.32 15 7 15 C7.67220351 16.93558599 8.33758077 18.87354372 9 20.8125 C9.37125 21.89144531 9.7425 22.97039063 10.125 24.08203125 C11 27 11 27 11 30 C7.10117486 25.12646857 4.9719227 20.6277689 2.98046875 14.7265625 C2.06273707 12.17446403 0.99636924 9.84277398 -0.25 7.4375 C-2 4 -2 4 -2 2 C-11.24 2 -20.48 2 -30 2 C-28.44029532 6.67911404 -26.73439894 11.11137182 -24.8046875 15.6328125 C-24 18 -24 18 -24 22 C-24.66 22 -25.32 22 -26 22 C-26.42152344 20.92878906 -26.84304688 19.85757813 -27.27734375 18.75390625 C-27.83059319 17.35671698 -28.38398602 15.95958449 -28.9375 14.5625 C-29.21529297 13.85544922 -29.49308594 13.14839844 -29.77929688 12.41992188 C-30.96222034 8.95326119 -30.96222034 8.95326119 -33 6 C-33.125 3.5 -33.125 3.5 -33 1 C-30.35158675 -1.64841325 -22.88981696 -0.49484615 -19.3125 -0.625 C-18.12720703 -0.6765625 -16.94191406 -0.728125 -15.72070312 -0.78125 C-14.57150391 -0.82507813 -13.42230469 -0.86890625 -12.23828125 -0.9140625 C-11.18680908 -0.9548291 -10.13533691 -0.9955957 -9.05200195 -1.03759766 C-5.89972231 -0.99876468 -3.06614314 -0.73911736 0 0 Z " fill="#3C8682" transform="translate(942,766)"/>
<path d="M0 0 C1.02975197 0.01077827 1.02975197 0.01077827 2.08030701 0.02177429 C2.78537888 0.02223251 3.49045074 0.02269073 4.21688843 0.02316284 C5.70726708 0.02618442 7.1976426 0.03406794 8.68797302 0.0464325 C10.97706709 0.06469849 13.26575703 0.06694213 15.55491638 0.06669617 C17.00088344 0.07161098 18.44684775 0.07743915 19.89280701 0.08427429 C20.92559532 0.08594353 20.92559532 0.08594353 21.97924805 0.08764648 C26.80409576 0.13618805 26.80409576 0.13618805 27.92015076 1.25224304 C28.54859237 6.65684095 27.00345451 8.91895128 23.92015076 13.25224304 C20.381888 19.74891948 17.38751525 26.53141533 14.34983826 33.27177429 C13.01828555 36.0476615 11.550365 38.64293564 9.92015076 41.25224304 C8.67983519 37.53129633 9.34824811 36.25768581 10.67015076 32.62724304 C11.01561951 31.64497742 11.36108826 30.66271179 11.71702576 29.65068054 C12.92015076 27.25224304 12.92015076 27.25224304 15.92015076 26.25224304 C16.00265076 25.20036804 16.08515076 24.14849304 16.17015076 23.06474304 C16.99884965 18.85219034 18.19422731 17.45921181 20.92015076 14.25224304 C22.84808387 10.25356695 24.12359106 6.59982117 24.92015076 2.25224304 C20.98687124 2.3211411 17.05452562 2.40911483 13.12205505 2.51469421 C11.12724446 2.56425623 9.13207818 2.59875438 7.13694763 2.63310242 C5.88333435 2.66855164 4.62972107 2.70400085 3.33811951 2.74052429 C2.18078308 2.76670837 1.02344666 2.79289246 -0.16896057 2.81987 C-3.05602512 3.01076591 -3.05602512 3.01076591 -4.85597229 4.59672546 C-5.97808196 6.11458417 -7.03279841 7.6816668 -8.07984924 9.25224304 C-7.05560695 0.03406244 -7.05560695 0.03406244 0 0 Z " fill="#3B837F" transform="translate(1066.079849243164,765.7477569580078)"/>
<path d="M0 0 C0.66 0 1.32 0 2 0 C1.76480024 6.3503936 0.0182233 10.04115002 -3.375 15.359375 C-7.77483851 22.50911259 -10.51468566 29.76325685 -12 38 C-12.66 38 -13.32 38 -14 38 C-15.07525194 40.65228812 -16.09456151 43.28368454 -17 46 C-19.475 46.495 -19.475 46.495 -22 47 C-22.45375 46.030625 -22.9075 45.06125 -23.375 44.0625 C-24.65786221 40.92920418 -24.65786221 40.92920418 -27 40 C-27.6328125 37.27734375 -27.6328125 37.27734375 -28.125 33.9375 C-28.29257812 32.83277344 -28.46015625 31.72804688 -28.6328125 30.58984375 C-28.75398437 29.73519531 -28.87515625 28.88054688 -29 28 C-28.34 28 -27.68 28 -27 28 C-26.30300448 29.45381897 -25.61766134 30.91322953 -24.9375 32.375 C-24.55464844 33.18710937 -24.17179688 33.99921875 -23.77734375 34.8359375 C-23.52082031 35.55007813 -23.26429688 36.26421875 -23 37 C-23.33 37.66 -23.66 38.32 -24 39 C-23.34 39 -22.68 39 -22 39 C-21.34 40.32 -20.68 41.64 -20 43 C-17.09527336 38.22794909 -14.94349865 33.48198483 -12.93359375 28.2734375 C-11.86516487 25.67165671 -10.44586934 23.40978223 -9 21 C-8.3371652 19.36093988 -7.6932307 17.71418001 -7.0625 16.0625 C-5.48190015 11.96509885 -3.45829033 8.64505117 -1 5 C-0.21784412 2.2717496 -0.21784412 2.2717496 0 0 Z " fill="#419591" transform="translate(1021,849)"/>
<path d="M0 0 C1 2 1 2 -0.1875 5.75 C-1.67453603 9.52898146 -3.7305446 12.63242103 -6 16 C-6.433125 17.3303125 -6.433125 17.3303125 -6.875 18.6875 C-7.96928175 21.90955182 -9.3404606 24.53768209 -11 27.5 C-13.11691921 31.28168091 -14.75097514 34.83658379 -16 39 C-16.66 39.99 -17.32 40.98 -18 42 C-18.66 42 -19.32 42 -20 42 C-20.12375 42.639375 -20.2475 43.27875 -20.375 43.9375 C-20.58125 44.618125 -20.7875 45.29875 -21 46 C-21.99 46.495 -21.99 46.495 -23 47 C-22.54803755 45.39402675 -22.08817673 43.79027492 -21.625 42.1875 C-21.36976563 41.29417969 -21.11453125 40.40085937 -20.8515625 39.48046875 C-20 37 -20 37 -18 34 C-17.34 34 -16.68 34 -16 34 C-15.896875 33.2575 -15.79375 32.515 -15.6875 31.75 C-14.94086561 28.76346246 -13.83587847 27.42335957 -12 25 C-11.31974363 23.00458132 -10.65509503 21.00382009 -10 19 C-9.372246 17.72013947 -8.72498423 16.44973322 -8.0625 15.1875 C-6.15797518 11.52658006 -4.92148622 7.85051608 -3.80859375 3.8828125 C-3 2 -3 2 0 0 Z " fill="#357574" transform="translate(1036,886)"/>
<path d="M0 0 C0 0.66 0 1.32 0 2 C0.763125 2.268125 1.52625 2.53625 2.3125 2.8125 C4.95845952 3.9816449 6.16374503 4.82988049 8 7 C8.50660156 7.54785156 9.01320313 8.09570312 9.53515625 8.66015625 C11.50864255 11.81247169 11.58338136 14.36941812 11.8125 18.0625 C11.90144531 19.29097656 11.99039063 20.51945313 12.08203125 21.78515625 C12 25 12 25 10 28 C9.97421875 26.90300781 9.9484375 25.80601562 9.921875 24.67578125 C9.8655731 23.22131552 9.80822623 21.76688997 9.75 20.3125 C9.73582031 19.59126953 9.72164062 18.87003906 9.70703125 18.12695312 C9.48190021 13.19658341 8.62530844 10.61202892 5 7 C-1.40703335 1.84651665 -8.0470968 2.44302285 -16 3 C-18.00476859 3.30333814 -20.00703768 3.62688833 -22 4 C-22 3.34 -22 2.68 -22 2 C-15.74593212 -2.28850369 -7.0789466 -2.35964887 0 0 Z " fill="#47A59E" transform="translate(1010,759)"/>
<path d="M0 0 C0.99134419 2.61739045 1.09832287 3.734787 0.109375 6.40234375 C-0.56351563 7.65724609 -0.56351563 7.65724609 -1.25 8.9375 C-1.71792969 9.82308594 -2.18585938 10.70867188 -2.66796875 11.62109375 C-3.59182242 13.27102597 -4.56028589 14.89645742 -5.5625 16.5 C-7.32533212 19.565795 -8.53718935 22.73381024 -9.82421875 26.0234375 C-11.21868251 29.55360821 -12.65677922 33.06245832 -14.125 36.5625 C-14.87136719 38.35880859 -14.87136719 38.35880859 -15.6328125 40.19140625 C-17 43 -17 43 -19 44 C-19.65213292 46.02463255 -19.65213292 46.02463255 -20 48 C-20.66 48 -21.32 48 -22 48 C-22.33 49.32 -22.66 50.64 -23 52 C-23.33 51.34 -23.66 50.68 -24 50 C-23.29296875 48.23046875 -23.29296875 48.23046875 -22.1875 46.1875 C-21.01921217 43.96655693 -19.93295498 41.83238744 -19 39.5 C-18.1184806 37.29620149 -17.13577978 35.23915866 -16.0625 33.125 C-14.20993875 29.47538495 -12.57399345 25.77758429 -11 22 C-10.34 22 -9.68 22 -9 22 C-8.9071875 20.824375 -8.9071875 20.824375 -8.8125 19.625 C-7.69371677 14.63350561 -5.38027126 10.49849432 -3 6 C-2.39202158 4.79358007 -1.78707228 3.58561963 -1.1875 2.375 C-0.795625 1.59125 -0.40375 0.8075 0 0 Z " fill="#449B94" transform="translate(1057,775)"/>
<path d="M0 0 C2.97595467 2.55081829 4.44002566 5.43434437 6 9 C6 9.99 6 10.98 6 12 C6.99 12 7.98 12 9 12 C9.10957031 12.59167969 9.21914063 13.18335938 9.33203125 13.79296875 C10.27179871 18.47652529 11.37809665 21.94796756 14 26 C14 26.99 14 27.98 14 29 C14.99 29.33 15.98 29.66 17 30 C18.203125 32.6171875 18.203125 32.6171875 19.25 35.875 C19.60578125 36.94492187 19.9615625 38.01484375 20.328125 39.1171875 C21 42 21 42 20 45 C18.33333333 41.66666667 16.66666667 38.33333333 15 35 C14.61585938 34.31421875 14.23171875 33.6284375 13.8359375 32.921875 C13 31 13 31 13 27 C12.34 27 11.68 27 11 27 C11 25.68 11 24.36 11 23 C10.34 23 9.68 23 9 23 C8.67 20.69 8.34 18.38 8 16 C7.34 16 6.68 16 6 16 C0.44419134 5.62642369 0.44419134 5.62642369 0 0 Z " fill="#387A78" transform="translate(965,886)"/>
<path d="M0 0 C3.11547582 2.5752199 4.0499085 5.36316306 5.375 9.125 C7.07117943 13.93661103 9.1583694 18.20235954 11.67138672 22.61767578 C13.90521418 26.6231312 15.89266841 30.74079531 17.875 34.875 C18.29007813 35.71546875 18.70515625 36.5559375 19.1328125 37.421875 C19.51953125 38.22882812 19.90625 39.03578125 20.3046875 39.8671875 C20.65515137 40.59019043 21.00561523 41.31319336 21.36669922 42.05810547 C22 44 22 44 21 47 C18.28464612 42.36966947 15.8449556 37.70195705 13.625 32.8125 C11.43138617 28.04119729 9.18303568 23.31205916 6.8125 18.625 C5.04146516 15.10192264 3.28525778 11.57683607 1.625 8 C1.30789063 7.319375 0.99078125 6.63875 0.6640625 5.9375 C0 4 0 4 0 0 Z " fill="#439892" transform="translate(970,830)"/>
<path d="M0 0 C5.16801607 6.5501599 8.1820658 14.21713411 11 22 C11.65129797 23.34090759 12.31513275 24.67592331 13 26 C14.3015797 28.96470931 15 30.73381035 15 34 C12 32 12 32 11.375 30.08984375 C11.12455963 28.6524204 10.87456116 27.21492 10.625 25.77734375 C10.41875 25.19082031 10.2125 24.60429688 10 24 C9.01 23.67 8.02 23.34 7 23 C2.13412889 15.76171412 0.03409729 8.66071107 0 0 Z " fill="#4CB3AB" transform="translate(954,796)"/>
<path d="M0 0 C2.86404088 1.43202044 2.92784382 3.52137296 3.953125 6.3984375 C5.26702507 9.66357721 6.8166205 12.7509972 8.4375 15.875 C9.01371094 16.98617187 9.58992187 18.09734375 10.18359375 19.2421875 C11.99106182 21.98642934 12.95162267 22.9414426 16 24 C16.17015625 23.16662109 16.17015625 23.16662109 16.34375 22.31640625 C17.09974012 19.64794114 18.22322962 17.39825222 19.5 14.9375 C20.87612083 12.27726641 22.05106411 9.84680767 23 7 C23.66 7 24.32 7 25 7 C24.67 9.31 24.34 11.62 24 14 C23.34 14 22.68 14 22 14 C21.87625 14.5775 21.7525 15.155 21.625 15.75 C20.99351176 18.02335767 20.11141809 19.9253529 19 22 C18.34 22 17.68 22 17 22 C17 22.99 17 23.98 17 25 C13.75 25 13.75 25 10 24 C7.37055234 20.6203641 6 17.2744113 6 13 C5.34 13 4.68 13 4 13 C3.32942113 11.2097939 2.6636531 9.41778511 2 7.625 C1.62875 6.62726562 1.2575 5.62953125 0.875 4.6015625 C0 2 0 2 0 0 Z " fill="#346C6B" transform="translate(987,931)"/>
<path d="M0 0 C6.79778549 4.53185699 9.8538627 14.51559093 11.47265625 22.26171875 C11.69918663 23.83466915 11.85929445 25.41706257 12 27 C10.5 25.625 10.5 25.625 9 24 C9 23.34 9 22.68 9 22 C8.34 22 7.68 22 7 22 C6.74605469 21.10796875 6.49210938 20.2159375 6.23046875 19.296875 C5.88628906 18.12640625 5.54210937 16.9559375 5.1875 15.75 C4.85105469 14.58984375 4.51460937 13.4296875 4.16796875 12.234375 C3.08987198 9.24887626 1.92966885 7.45594217 0 5 C-0.1875 2.25 -0.1875 2.25 0 0 Z " fill="#47A49F" transform="translate(939,830)"/>
<path d="M0 0 C1.25361328 0.00966797 2.50722656 0.01933594 3.79882812 0.02929688 C5.10916016 0.05443359 6.41949219 0.07957031 7.76953125 0.10546875 C9.10480288 0.12051908 10.44009062 0.13420688 11.77539062 0.14648438 C15.04467701 0.18189181 18.31315218 0.23127985 21.58203125 0.29296875 C21.32641802 2.63609005 20.98932353 4.97140278 20.58203125 7.29296875 C19.92203125 7.62296875 19.26203125 7.95296875 18.58203125 8.29296875 C18.58203125 6.31296875 18.58203125 4.33296875 18.58203125 2.29296875 C14.95709791 2.23509091 11.33228268 2.19941455 7.70703125 2.16796875 C6.15822266 2.14283203 6.15822266 2.14283203 4.578125 2.1171875 C3.59199219 2.11074219 2.60585937 2.10429688 1.58984375 2.09765625 C0.6786377 2.08718262 -0.23256836 2.07670898 -1.17138672 2.06591797 C-3.62087311 2.07425882 -3.62087311 2.07425882 -5.41796875 4.29296875 C-6.40796875 4.29296875 -7.39796875 4.29296875 -8.41796875 4.29296875 C-9.07796875 7.26296875 -9.73796875 10.23296875 -10.41796875 13.29296875 C-11.40796875 13.29296875 -12.39796875 13.29296875 -13.41796875 13.29296875 C-12.82369487 11.68511098 -12.21713287 10.08179166 -11.60546875 8.48046875 C-11.26902344 7.58714844 -10.93257812 6.69382812 -10.5859375 5.7734375 C-8.06246538 0.41422413 -5.85652818 -0.07950038 0 0 Z " fill="#5AD3CA" transform="translate(1069.41796875,767.70703125)"/>
<path d="M0 0 C1.66714735 3.3342947 0.10734737 6.62615218 -1 10 C-2.75816774 13.51633548 -3.69025013 14.79350008 -7 17 C-8.00805555 19.17897492 -8.00805555 19.17897492 -8.6875 21.625 C-8.93886719 22.44226563 -9.19023438 23.25953125 -9.44921875 24.1015625 C-9.63097656 24.72804688 -9.81273437 25.35453125 -10 26 C-10.66 26 -11.32 26 -12 26 C-11.27392513 20.37291978 -9.04737798 14.04737798 -5 10 C-4.35232207 7.42938689 -4.35232207 7.42938689 -4 5 C-3.34 5 -2.68 5 -2 5 C-1.855625 4.360625 -1.71125 3.72125 -1.5625 3.0625 C-1 1 -1 1 0 0 Z " fill="#47A39D" transform="translate(1075,802)"/>
<path d="M0 0 C0 0.66 0 1.32 0 2 C-1.65071396 3.02611949 -3.31970006 4.02308143 -5 5 C-7.92043733 6.98990582 -8.04040438 8.20980027 -8.73046875 11.79296875 C-8.89601295 13.25637947 -9.04793087 14.72138394 -9.1875 16.1875 C-9.26935547 16.93708984 -9.35121094 17.68667969 -9.43554688 18.45898438 C-9.63540784 20.30475918 -9.81926538 22.15225433 -10 24 C-10.309375 23.360625 -10.61875 22.72125 -10.9375 22.0625 C-11.8345163 20.06389179 -11.8345163 20.06389179 -13 19 C-13.34223148 14.20875922 -12.44209192 10.50653726 -11 6 C-10.34 6 -9.68 6 -9 6 C-8.773125 5.38125 -8.54625 4.7625 -8.3125 4.125 C-6.36599536 0.97351629 -3.66041994 0 0 0 Z " fill="#49ABA4" transform="translate(992,762)"/>
<path d="M0 0 C2 1.25 2 1.25 4 3 C4 4.32 4 5.64 4 7 C4.66 7 5.32 7 6 7 C6.33 8.98 6.66 10.96 7 13 C7.66 13 8.32 13 9 13 C9.67220351 14.93558599 10.33758077 16.87354372 11 18.8125 C11.556875 20.43091797 11.556875 20.43091797 12.125 22.08203125 C13 25 13 25 13 28 C9.10117486 23.12646857 6.9719227 18.6277689 4.98046875 12.7265625 C4.06273707 10.17446403 2.99636924 7.84277398 1.75 5.4375 C0 2 0 2 0 0 Z " fill="#439A94" transform="translate(940,768)"/>
<path d="M0 0 C0.99 0.33 1.98 0.66 3 1 C4.38671875 3.8359375 4.38671875 3.8359375 5.6875 7.375 C6.12449219 8.53773438 6.56148437 9.70046875 7.01171875 10.8984375 C8 14 8 14 8 17 C8.66 17 9.32 17 10 17 C9.67 18.32 9.34 19.64 9 21 C7 18 7 18 7 15 C6.01 15 5.02 15 4 15 C4 14.01 4 13.02 4 12 C3.34 12 2.68 12 2 12 C1.66430703 10.37548581 1.3315204 8.75037083 1 7.125 C0.814375 6.22007812 0.62875 5.31515625 0.4375 4.3828125 C0 2 0 2 0 0 Z " fill="#50B9B1" transform="translate(917,782)"/>
<path d="M0 0 C2.31 0 4.62 0 7 0 C4.29384966 9.59453303 4.29384966 9.59453303 0 13 C-0.19551338 11.39679026 -0.38111983 9.79237014 -0.5625 8.1875 C-0.71912109 6.84751953 -0.71912109 6.84751953 -0.87890625 5.48046875 C-1 3 -1 3 0 0 Z " fill="#5DF0DD" transform="translate(1033,875)"/>
<path d="M0 0 C-0.33 1.65 -0.66 3.3 -1 5 C-1.66 5 -2.32 5 -3 5 C-3.4021875 6.1446875 -3.4021875 6.1446875 -3.8125 7.3125 C-4.9612484 9.91229902 -5.9685876 11.10215992 -8 13 C-9.58720201 4.9259724 -9.58720201 4.9259724 -7.375 1.4375 C-4.65130928 -0.21104964 -3.12856427 -0.34761825 0 0 Z " fill="#5EF0DF" transform="translate(1056,843)"/>
<path d="M0 0 C1 2 1 2 -0.1875 5.75 C-1.67023765 9.52858949 -3.7497141 12.62457115 -6 16 C-6.78215588 18.7282504 -6.78215588 18.7282504 -7 21 C-8.32 20.67 -9.64 20.34 -11 20 C-10.67386719 19.45472656 -10.34773438 18.90945313 -10.01171875 18.34765625 C-7.26559282 13.60876636 -5.21059854 9.13902191 -3.7734375 3.84765625 C-3 2 -3 2 0 0 Z " fill="#3A7C79" transform="translate(1036,886)"/>
<path d="M0 0 C0.66 0.33 1.32 0.66 2 1 C-0.10575817 5.87030101 -2.28390758 10.70805109 -4.5625 15.5 C-4.95566406 16.3353125 -5.34882812 17.170625 -5.75390625 18.03125 C-7 20 -7 20 -10 21 C-5.35051546 5.35051546 -5.35051546 5.35051546 0 0 Z " fill="#3C8985" transform="translate(1045,866)"/>
<path d="M0 0 C0.33 0 0.66 0 1 0 C0.67 3.63 0.34 7.26 0 11 C-0.66 11 -1.32 11 -2 11 C-2 11.66 -2 12.32 -2 13 C-2.66 13 -3.32 13 -4 13 C-4 13.99 -4 14.98 -4 16 C-4.66 16.33 -5.32 16.66 -6 17 C-6.72159424 18.64363134 -7.39351421 20.31050386 -8 22 C-9 19 -9 19 -8.328125 17.203125 C-7.97234375 16.55859375 -7.6165625 15.9140625 -7.25 15.25 C-5.84541232 12.61518724 -4.52698983 10.00527464 -3.375 7.25 C-2.32768335 4.77452428 -1.23880271 2.3823129 0 0 Z " fill="#3F908B" transform="translate(1032,827)"/>
<path d="M0 0 C0.66 0 1.32 0 2 0 C2 1.32 2 2.64 2 4 C2.66 4 3.32 4 4 4 C4.0825 5.27875 4.165 6.5575 4.25 7.875 C4.45869931 10.05333418 4.45869931 10.05333418 5 12 C6.92064793 13.5899433 6.92064793 13.5899433 9 14 C9 15.65 9 17.3 9 19 C10.32 19.66 11.64 20.32 13 21 C13 22.98 13 24.96 13 27 C10.34802514 24.07368291 8.67071058 21.44443633 7.375 17.75 C6.46711456 13.9478068 6.46711456 13.9478068 4 13 C3.21376109 10.83927773 2.51798774 8.64509125 1.875 6.4375 C1.52179687 5.23996094 1.16859375 4.04242187 0.8046875 2.80859375 C0.53914062 1.88175781 0.27359375 0.95492187 0 0 Z " fill="#53C5BD" transform="translate(982,918)"/>
<path d="M0 0 C0.33 0.66 0.66 1.32 1 2 C-0.46615298 5.77010767 -2.13404221 9.41161963 -4 13 C-7.64566186 12.01468598 -8.80178732 11.31053319 -10.875 8.0625 C-12 5 -12 5 -11 2 C-10.8453125 2.9590625 -10.8453125 2.9590625 -10.6875 3.9375 C-10.460625 4.618125 -10.23375 5.29875 -10 6 C-9.01 6.33 -8.02 6.66 -7 7 C-7 7.99 -7 8.98 -7 10 C-4.44140308 8.72070154 -4.13851266 7.55728932 -2.9375 5 C-1.08474576 1.08474576 -1.08474576 1.08474576 0 0 Z " fill="#5CD4CB" transform="translate(1007,942)"/>
<path d="M0 0 C1.32 0.33 2.64 0.66 4 1 C4.33 3.97 4.66 6.94 5 10 C5.66 10 6.32 10 7 10 C7 11.32 7 12.64 7 14 C7.66 14 8.32 14 9 14 C9.33 16.64 9.66 19.28 10 22 C7.97653517 18.96480275 6.20145388 15.88029335 4.4375 12.6875 C3.81746094 11.57761719 3.19742188 10.46773437 2.55859375 9.32421875 C1.05624568 6.11996259 0.38628965 3.49777338 0 0 Z " fill="#5BCFC7" transform="translate(962,876)"/>
<path d="M0 0 C0.33 0 0.66 0 1 0 C1.76115897 17.61237275 1.76115897 17.61237275 -3 23 C-7.83870968 26 -7.83870968 26 -11 26 C-11 25.34 -11 24.68 -11 24 C-9.27473958 23.12109375 -7.54947917 22.2421875 -5.82421875 21.36328125 C-3.32477443 19.49538817 -2.31130097 17.84115211 -1 15 C-0.63774319 12.33146704 -0.40199569 9.85958571 -0.3125 7.1875 C-0.27833984 6.49462891 -0.24417969 5.80175781 -0.20898438 5.08789062 C-0.12713656 3.39247151 -0.06187635 1.69626542 0 0 Z " fill="#4DB4AB" transform="translate(1019,771)"/>
<path d="M0 0 C0.33 0 0.66 0 1 0 C1.2475 0.78375 1.495 1.5675 1.75 2.375 C3.07108912 6.20615845 4.60511434 9.90687375 6.1953125 13.6328125 C7 16 7 16 7 20 C6.34 20 5.68 20 5 20 C1.80835533 13.16076141 -0.73226358 7.61554118 0 0 Z " fill="#45A2A0" transform="translate(911,768)"/>
<path d="M0 0 C0.99 0 1.98 0 3 0 C2.67 2.31 2.34 4.62 2 7 C1.34 7 0.68 7 0 7 C-0.28875 7.763125 -0.5775 8.52625 -0.875 9.3125 C-2 12 -2 12 -4 15 C-4.59720137 9.17728663 -2.528243 5.0790596 0 0 Z " fill="#469F98" transform="translate(1007,880)"/>
<path d="M0 0 C0 3 0 3 -1.375 4.75 C-3.2517583 7.06977554 -3.2517583 7.06977554 -4 10.6875 C-4.33 11.780625 -4.66 12.87375 -5 14 C-5.99 14.33 -6.98 14.66 -8 15 C-7.79905835 13.03856959 -7.56328747 11.08068209 -7.3125 9.125 C-7.18488281 8.03445313 -7.05726562 6.94390625 -6.92578125 5.8203125 C-6 3 -6 3 -3.48046875 1.6796875 C-2.66191406 1.45539062 -1.84335938 1.23109375 -1 1 C-0.67 0.67 -0.34 0.34 0 0 Z " fill="#5BDFD0" transform="translate(1087,778)"/>
<path d="M0 0 C4.28760234 3.4005122 5.96367838 7.74090992 7 13 C6.67 13.99 6.34 14.98 6 16 C5.0026228 14.27121286 4.0068947 12.54143106 3.0234375 10.8046875 C2.27692538 9.48831881 1.51727858 8.17937359 0.75 6.875 C-0.19771055 4.50572363 -0.14038535 2.52693627 0 0 Z " fill="#3D8884" transform="translate(958,870)"/>
<path d="M0 0 C1.4765625 1.0078125 1.4765625 1.0078125 3 3 C3.29965637 5.72040979 3.41901345 8.16083753 3.375 10.875 C3.38660156 11.58269531 3.39820313 12.29039062 3.41015625 13.01953125 C3.38496245 17.52922107 2.68902987 20.37194382 0 24 C-1.34794719 21.30410561 -0.40931243 19.96922612 0.453125 17.21875 C1.51861696 12.89589691 1.69551729 8.43102473 2 4 C1.34 4 0.68 4 0 4 C0 2.68 0 1.36 0 0 Z " fill="#5EE1D5" transform="translate(1016,767)"/>
<path d="M0 0 C1 2 1 2 0.328125 4.171875 C-0.02765625 5.02265625 -0.3834375 5.8734375 -0.75 6.75 C-1.12125 7.63945313 -1.4925 8.52890625 -1.875 9.4453125 C-3.15683089 12.35613682 -4.51891685 15.18594202 -6 18 C-6.33 18 -6.66 18 -7 18 C-7 16.02 -7 14.04 -7 12 C-6.01 11.67 -5.02 11.34 -4 11 C-3.26733263 8.95811462 -3.26733263 8.95811462 -2.9375 6.5625 C-2.2027027 2.2027027 -2.2027027 2.2027027 0 0 Z " fill="#3A8582" transform="translate(1069,817)"/>
<path d="M0 0 C0.66 0 1.32 0 2 0 C1.67 2.31 1.34 4.62 1 7 C0.34 7 -0.32 7 -1 7 C-1.12375 7.5775 -1.2475 8.155 -1.375 8.75 C-2.00648824 11.02335767 -2.88858191 12.9253529 -4 15 C-5.11346788 12.19966161 -5.03510273 11.09856297 -4.00390625 8.203125 C-3.52824219 7.22859375 -3.05257812 6.2540625 -2.5625 5.25 C-2.08941406 4.26515625 -1.61632812 3.2803125 -1.12890625 2.265625 C-0.75636719 1.51796875 -0.38382813 0.7703125 0 0 Z " fill="#295959" transform="translate(1010,938)"/>
<path d="M0 0 C1.32 0.33 2.64 0.66 4 1 C4.66 4.63 5.32 8.26 6 12 C5.01 11.01 4.02 10.02 3 9 C3 8.34 3 7.68 3 7 C2.34 7 1.68 7 1 7 C0.67 4.69 0.34 2.38 0 0 Z " fill="#3F918B" transform="translate(945,845)"/>
<path d="M0 0 C0.75 1.625 0.75 1.625 1 4 C-0.875 7.0625 -0.875 7.0625 -3 10 C-3.33 10.99 -3.66 11.98 -4 13 C-4.66 13 -5.32 13 -6 13 C-6 11.02 -6 9.04 -6 7 C-5.34 6.67 -4.68 6.34 -4 6 C-3.67 5.01 -3.34 4.02 -3 3 C-2.34 3 -1.68 3 -1 3 C-0.67 2.01 -0.34 1.02 0 0 Z " fill="#52CDC2" transform="translate(1024,907)"/>
<path d="M0 0 C0.33 0.66 0.66 1.32 1 2 C0.5875 2.680625 0.175 3.36125 -0.25 4.0625 C-2.51035956 7.85667498 -3.70846262 11.79563364 -5 16 C-5.66 16 -6.32 16 -7 16 C-6.27392513 10.37291978 -4.04737798 4.04737798 0 0 Z " fill="#54CAC0" transform="translate(1070,812)"/>
<path d="M0 0 C3.76425934 1.88212967 4.78116705 6.41260628 6.1875 10.1875 C7 13 7 13 7 16 C3.33471601 13.55647734 3.1062002 12.12397918 1.8125 8 C1.46832031 6.9275 1.12414062 5.855 0.76953125 4.75 C0 2 0 2 0 0 Z " fill="#47A39D" transform="translate(962,814)"/>
<path d="M0 0 C2.31962709 2.31962709 3.30985217 4.46509652 4.6875 7.4375 C5.14511719 8.40558594 5.60273437 9.37367188 6.07421875 10.37109375 C7 13 7 13 6 16 C0 5.8 0 5.8 0 0 Z " fill="#3B8B86" transform="translate(985,861)"/>
<path d="M0 0 C1.42809691 2.85619382 0.56733756 4.45501694 -0.25 7.5 C-0.50265625 8.4796875 -0.7553125 9.459375 -1.015625 10.46875 C-2 13 -2 13 -5 15 C-3.97137215 9.55432314 -2.75385216 4.88182883 0 0 Z " fill="#3F918D" transform="translate(1080,792)"/>
<path d="M0 0 C0.33 0 0.66 0 1 0 C1.56561146 5.65611463 -0.28608722 9.22642128 -3 14 C-3.66 14 -4.32 14 -5 14 C-4.42923685 10.00465792 -3.09958585 7.411827 -1 4 C-0.30420546 1.80869466 -0.30420546 1.80869466 0 0 Z " fill="#3C8B87" transform="translate(1013,866)"/>
<path d="M0 0 C4.43601966 3.51822249 5.52033129 7.75390186 7 13 C6.34 13 5.68 13 5 13 C4.87625 12.360625 4.7525 11.72125 4.625 11.0625 C4.41875 10.381875 4.2125 9.70125 4 9 C3.34 8.67 2.68 8.34 2 8 C0.6250851 5.09740189 0 3.23861295 0 0 Z " fill="#3C8683" transform="translate(951,857)"/>
<path d="M0 0 C1.59036701 3.18073402 0.78365299 5.62426403 0 9 C-2.0625 10.4375 -2.0625 10.4375 -4 11 C-4.56638908 6.18569279 -2.82561627 3.79692186 0 0 Z " fill="#4AA8A4" transform="translate(1049,855)"/>
<path d="M0 0 C0.33 0 0.66 0 1 0 C1.34833144 4.87664009 0.41685712 7.77050005 -2 12 C-2.66 12 -3.32 12 -4 12 C-2 3.42857143 -2 3.42857143 0 0 Z " fill="#58D1C8" transform="translate(1026,843)"/>
<path d="M0 0 C0 0.66 0 1.32 0 2 C-1.63790712 3.04644066 -3.31008021 4.0398183 -5 5 C-6.34631825 5.98244845 -7.68441297 6.97676564 -9 8 C-8.25 3.25 -8.25 3.25 -6 1 C-3.90200436 0.34437636 -2.19959601 0 0 0 Z " fill="#51B7AF" transform="translate(992,762)"/>
<path d="M0 0 C2.64492308 1.32246154 2.97833787 2.64535898 4.1875 5.3125 C4.55230469 6.09238281 4.91710937 6.87226562 5.29296875 7.67578125 C6.07807525 10.2566562 5.89937661 11.49663962 5 14 C2.46690767 9.35796103 0.53484401 5.34844008 0 0 Z " fill="#58CFC5" transform="translate(957,806)"/>
<path d="M0 0 C1.32 0.33 2.64 0.66 4 1 C4.33 3.64 4.66 6.28 5 9 C3.0625 7.875 3.0625 7.875 1 6 C0.25 2.8125 0.25 2.8125 0 0 Z " fill="#59DBCD" transform="translate(962,876)"/>
<path d="M0 0 C0.91058531 3.07322544 1.08886184 5.80097361 1 9 C-0.65 9.66 -2.3 10.32 -4 11 C-3.52269162 9.5410574 -3.04308958 8.08286504 -2.5625 6.625 C-2.29566406 5.81289063 -2.02882813 5.00078125 -1.75390625 4.1640625 C-1 2 -1 2 0 0 Z " fill="#5AE1D9" transform="translate(1016,865)"/>
<path d="M0 0 C2 0 2 0 4.125 1.625 C6.47736015 4.60465619 6.33663062 6.29706315 6 10 C2.79851787 7.86567858 2.47793261 7.31580104 1.3125 3.875 C1.06113281 3.15054688 0.80976562 2.42609375 0.55078125 1.6796875 C0.36902344 1.12539063 0.18726563 0.57109375 0 0 Z " fill="#3F8C88" transform="translate(933,822)"/>
<path d="M0 0 C1.12377697 3.30435084 0.89554742 5.0506862 -0.4375 8.25 C-0.72496094 8.95640625 -1.01242187 9.6628125 -1.30859375 10.390625 C-1.53675781 10.92171875 -1.76492188 11.4528125 -2 12 C-2.66 12 -3.32 12 -4 12 C-3.45660208 7.43545749 -2.20536179 4.0271824 0 0 Z " fill="#5CE1D5" transform="translate(1046,802)"/>
<path d="M0 0 C1.890625 0.6171875 1.890625 0.6171875 4 2 C5.046875 4.8203125 5.046875 4.8203125 5.75 8.125 C5.99234375 9.22070312 6.2346875 10.31640625 6.484375 11.4453125 C6.65453125 12.28835938 6.8246875 13.13140625 7 14 C4.2065758 12.6032879 4.03557041 11.00586915 2.9375 8.125 C2.59589844 7.24070312 2.25429688 6.35640625 1.90234375 5.4453125 C1.2367278 3.64152209 0.6080053 1.8240159 0 0 Z " fill="#54C6BB" transform="translate(930,811)"/>
<path d="M0 0 C0.99 0.33 1.98 0.66 3 1 C3.94921875 3.28515625 3.94921875 3.28515625 4.6875 6.0625 C4.93886719 6.98160156 5.19023438 7.90070312 5.44921875 8.84765625 C5.63097656 9.55792969 5.81273437 10.26820313 6 11 C1.9957657 7.50912907 0.37328935 5.35048061 0 0 Z " fill="#4AA7A1" transform="translate(948,785)"/>
<path d="M0 0 C1.32 0.33 2.64 0.66 4 1 C4 1.99 4 2.98 4 4 C4.66 4 5.32 4 6 4 C6.33 5.98 6.66 7.96 7 10 C4 9 4 9 2.83203125 6.93359375 C2.49558594 6.10988281 2.15914062 5.28617188 1.8125 4.4375 C1.46832031 3.61121094 1.12414062 2.78492188 0.76953125 1.93359375 C0.51558594 1.29550781 0.26164063 0.65742187 0 0 Z " fill="#59D2C7" transform="translate(975,906)"/>
<path d="M0 0 C0.66 0 1.32 0 2 0 C2.66 1.32 3.32 2.64 4 4 C4.66 3.67 5.32 3.34 6 3 C5.67 4.65 5.34 6.3 5 8 C3.68 7.67 2.36 7.34 1 7 C0.67 4.69 0.34 2.38 0 0 Z " fill="#3C837F" transform="translate(997,888)"/>
<path d="M0 0 C2.18840439 3.28260659 4.15885893 6.50818073 6 10 C5.67 10.66 5.34 11.32 5 12 C1.35224614 8.11690718 0.41474367 5.28798182 0 0 Z " fill="#5EDED4" transform="translate(975,845)"/>
<path d="M0 0 C0.99 0.495 0.99 0.495 2 1 C2.59355614 3.64860427 2.74209269 6.29197322 3 9 C2.01 9 1.02 9 0 9 C0 6.03 0 3.06 0 0 Z " fill="#5EDBD1" transform="translate(990,876)"/>
<path d="M0 0 C0.33 0.66 0.66 1.32 1 2 C-1.48387097 8.74193548 -1.48387097 8.74193548 -4 10 C-3.5205537 5.78087253 -2.83374881 3.20336822 0 0 Z " fill="#55C7B9" transform="translate(1007,942)"/>
<path d="M0 0 C0.928125 1.175625 0.928125 1.175625 1.875 2.375 C3.89858661 4.96837647 3.89858661 4.96837647 6 7 C5.625 9.125 5.625 9.125 5 11 C4.67 10.01 4.34 9.02 4 8 C3.34 7.67 2.68 7.34 2 7 C2 6.01 2 5.02 2 4 C1.01 4 0.02 4 -1 4 C-0.67 2.68 -0.34 1.36 0 0 Z " fill="#5EDBD1" transform="translate(948,789)"/>
<path d="M0 0 C2.31 0 4.62 0 7 0 C6.74438677 2.3431213 6.40729228 4.67843403 6 7 C5.01 7.495 5.01 7.495 4 8 C4 6.02 4 4.04 4 2 C2.68 1.34 1.36 0.68 0 0 Z " fill="#5FD5D1" transform="translate(1084,768)"/>
<path d="M0 0 C3.44216672 2.6598561 3.99504674 5.90288286 5 10 C4.34 9.67 3.68 9.34 3 9 C3 8.34 3 7.68 3 7 C2.34 7 1.68 7 1 7 C0.67 4.69 0.34 2.38 0 0 Z " fill="#57DAD3" transform="translate(983,862)"/>
<path d="M0 0 C0.66 0 1.32 0 2 0 C2 1.65 2 3.3 2 5 C0.02 5.99 0.02 5.99 -2 7 C-1.125 2.25 -1.125 2.25 0 0 Z " fill="#469C98" transform="translate(1060,833)"/>
<path d="M0 0 C0.99 1.485 0.99 1.485 2 3 C2.8353125 4.2375 2.8353125 4.2375 3.6875 5.5 C4.120625 6.325 4.55375 7.15 5 8 C4.67 8.99 4.34 9.98 4 11 C1.17438373 7.20307814 -0.56638908 4.81430721 0 0 Z " fill="#3B8381" transform="translate(923,797)"/>
<path d="M0 0 C3.67230705 3.07999946 4.56802365 5.2482602 5 10 C4.34 10 3.68 10 3 10 C0 3.375 0 3.375 0 0 Z " fill="#377D79" transform="translate(913,778)"/>
<path d="M0 0 C0.33 0 0.66 0 1 0 C1.25 2.25 1.25 2.25 1 5 C-1 7.3125 -1 7.3125 -3 9 C-2.44271087 5.65626525 -1.64826111 2.96687001 0 0 Z " fill="#285455" transform="translate(1020,919)"/>
<path d="M0 0 C1 2 1 2 0.1875 5.5625 C-1 9 -1 9 -3 10 C-2.69201674 8.51988629 -2.378482 7.04092675 -2.0625 5.5625 C-1.88847656 4.73878906 -1.71445313 3.91507813 -1.53515625 3.06640625 C-1 1 -1 1 0 0 Z " fill="#40948F" transform="translate(1052,850)"/>
<path d="M0 0 C1.9375 1.0625 1.9375 1.0625 4 3 C4.75 6.6875 4.75 6.6875 5 10 C3 9 3 9 2.1484375 6.93359375 C1.89320313 6.10988281 1.63796875 5.28617188 1.375 4.4375 C1.11460937 3.61121094 0.85421875 2.78492188 0.5859375 1.93359375 C0.39257812 1.29550781 0.19921875 0.65742187 0 0 Z " fill="#4AA69E" transform="translate(940,768)"/>
<path d="M0 0 C0.625 1.8125 0.625 1.8125 1 4 C0.01 5.485 0.01 5.485 -1 7 C-1.99 7 -2.98 7 -4 7 C-4 6.01 -4 5.02 -4 4 C-2.68 3.67 -1.36 3.34 0 3 C0 2.01 0 1.02 0 0 Z " fill="#5DDDD3" transform="translate(1004,892)"/>
<path d="M0 0 C1.33332095 2.6666419 0.67102033 4.16680303 0 7 C-0.66 7 -1.32 7 -2 7 C-2.33 7.66 -2.66 8.32 -3 9 C-3.26218749 5.85375007 -3.24754367 4.38162983 -1.5 1.6875 C-1.005 1.130625 -0.51 0.57375 0 0 Z " fill="#54C7BE" transform="translate(1032,831)"/>
</svg>
